<svg width="1653" height="1061" xmlns="http://www.w3.org/2000/svg" xmlns:xlink="http://www.w3.org/1999/xlink" xml:space="preserve" overflow="hidden"><defs><clipPath id="clip0"><rect x="1299" y="130" width="1653" height="1061"/></clipPath><clipPath id="clip1"><rect x="1299" y="130" width="1650" height="1059"/></clipPath><clipPath id="clip2"><rect x="1299" y="130" width="1650" height="1059"/></clipPath><clipPath id="clip3"><rect x="1299" y="130" width="1650" height="1059"/></clipPath><clipPath id="clip4"><rect x="1299" y="130" width="1650" height="1059"/></clipPath><clipPath id="clip5"><rect x="1299" y="130" width="1650" height="1059"/></clipPath><clipPath id="clip6"><rect x="1299" y="130" width="1650" height="1059"/></clipPath><clipPath id="clip7"><rect x="1299" y="130" width="1650" height="1059"/></clipPath><clipPath id="clip8"><rect x="1299" y="130" width="1650" height="1059"/></clipPath><clipPath id="clip9"><rect x="1299" y="130" width="1650" height="1059"/></clipPath><clipPath id="clip10"><rect x="1299" y="130" width="1650" height="1059"/></clipPath><clipPath id="clip11"><rect x="1299" y="130" width="1650" height="1059"/></clipPath><clipPath id="clip12"><rect x="1299" y="130" width="1650" height="1059"/></clipPath><clipPath id="clip13"><rect x="1299" y="130" width="1650" height="1059"/></clipPath><clipPath id="clip14"><rect x="1299" y="130" width="1650" height="1059"/></clipPath><clipPath id="clip15"><rect x="1299" y="130" width="1650" height="1059"/></clipPath><clipPath id="clip16"><rect x="1299" y="130" width="1650" height="1059"/></clipPath><clipPath id="clip17"><rect x="1299" y="130" width="1650" height="1059"/></clipPath><clipPath id="clip18"><rect x="1299" y="130" width="1650" height="1059"/></clipPath><clipPath id="clip19"><rect x="1299" y="130" width="1650" height="1059"/></clipPath><clipPath id="clip20"><rect x="1299" y="130" width="1650" height="1059"/></clipPath><clipPath id="clip21"><rect x="1299" y="130" width="1650" height="1059"/></clipPath><clipPath id="clip22"><rect x="1299" y="130" width="1650" height="1059"/></clipPath><clipPath id="clip23"><rect x="1299" y="130" width="1650" height="1059"/></clipPath><clipPath id="clip24"><rect x="1299" y="130" width="1650" height="1059"/></clipPath><clipPath id="clip25"><rect x="1299" y="130" width="1650" height="1059"/></clipPath><clipPath id="clip26"><rect x="1299" y="130" width="1650" height="1059"/></clipPath><clipPath id="clip27"><rect x="1299" y="130" width="1650" height="1059"/></clipPath><clipPath id="clip28"><rect x="1299" y="130" width="1650" height="1059"/></clipPath><clipPath id="clip29"><rect x="1299" y="130" width="1650" height="1059"/></clipPath><clipPath id="clip30"><rect x="1299" y="130" width="1650" height="1059"/></clipPath><clipPath id="clip31"><rect x="1299" y="130" width="1651" height="1060"/></clipPath></defs><g clip-path="url(#clip0)" transform="translate(-1299 -130)"><rect x="1300" y="131" width="1650" height="1058" fill="#FFFFFF"/><g clip-path="url(#clip1)"><path d="M1517.5 871.529 2608.5 871.529M1517.5 757.525 2608.5 757.525M1517.5 643.521 2608.5 643.521M1517.5 529.518 2608.5 529.518M1517.5 414.514 2608.5 414.514M1517.5 300.5 2608.5 300.5" stroke="#D9D9D9" stroke-width="3.4375" stroke-linejoin="round" stroke-miterlimit="10" fill="none"/></g><g clip-path="url(#clip2)"><path d="M1789.56 300.5 1789.56 985.5M2062.57 300.5 2062.57 985.5M2335.58 300.5 2335.58 985.5M2608.5 300.5 2608.5 985.5" stroke="#D9D9D9" stroke-width="3.4375" stroke-linejoin="round" stroke-miterlimit="10" fill="none"/></g><g clip-path="url(#clip3)"><path d="M0 0 0.000360892 685" stroke="#BFBFBF" stroke-width="3.4375" stroke-linejoin="round" stroke-miterlimit="10" fill="none" fill-rule="evenodd" transform="matrix(1 0 0 -1 1517.5 985.5)"/></g><g clip-path="url(#clip4)"><path d="M1517.5 985.5 2608.5 985.5" stroke="#BFBFBF" stroke-width="3.4375" stroke-linejoin="round" stroke-miterlimit="10" fill="none" fill-rule="evenodd"/></g><g clip-path="url(#clip5)"><path d="M1613.22 948.125C1613.22 954.2 1608.29 959.124 1602.22 959.124 1596.14 959.124 1591.22 954.2 1591.22 948.125 1591.22 942.05 1596.14 937.125 1602.22 937.125 1608.29 937.125 1613.22 942.05 1613.22 948.125Z" stroke="#C00000" stroke-width="1.14583" stroke-linejoin="round" stroke-miterlimit="10" stroke-opacity="0.74902" fill="#C00000" fill-opacity="0.25098"/><path d="M1646.22 925.125C1646.22 931.199 1641.29 936.124 1635.22 936.124 1629.14 936.124 1624.22 931.199 1624.22 925.125 1624.22 919.05 1629.14 914.125 1635.22 914.125 1641.29 914.125 1646.22 919.05 1646.22 925.125Z" stroke="#C00000" stroke-width="1.14583" stroke-linejoin="round" stroke-miterlimit="10" stroke-opacity="0.74902" fill="#C00000" fill-opacity="0.25098"/><path d="M1654.22 920.125C1654.22 926.2 1649.29 931.124 1643.22 931.124 1637.14 931.124 1632.22 926.2 1632.22 920.125 1632.22 914.05 1637.14 909.125 1643.22 909.125 1649.29 909.125 1654.22 914.05 1654.22 920.125Z" stroke="#C00000" stroke-width="1.14583" stroke-linejoin="round" stroke-miterlimit="10" stroke-opacity="0.74902" fill="#C00000" fill-opacity="0.25098"/><path d="M1664.22 925.125C1664.22 931.199 1659.29 936.124 1653.22 936.124 1647.14 936.124 1642.22 931.199 1642.22 925.125 1642.22 919.05 1647.14 914.125 1653.22 914.125 1659.29 914.125 1664.22 919.05 1664.22 925.125Z" stroke="#C00000" stroke-width="1.14583" stroke-linejoin="round" stroke-miterlimit="10" stroke-opacity="0.74902" fill="#C00000" fill-opacity="0.25098"/><path d="M1681.22 910.125C1681.22 916.2 1676.29 921.124 1670.22 921.124 1664.14 921.124 1659.22 916.2 1659.22 910.125 1659.22 904.05 1664.14 899.125 1670.22 899.125 1676.29 899.125 1681.22 904.05 1681.22 910.125Z" stroke="#C00000" stroke-width="1.14583" stroke-linejoin="round" stroke-miterlimit="10" stroke-opacity="0.74902" fill="#C00000" fill-opacity="0.25098"/><path d="M1707.22 901.125C1707.22 907.2 1702.29 912.124 1696.22 912.124 1690.14 912.124 1685.22 907.2 1685.22 901.125 1685.22 895.05 1690.14 890.125 1696.22 890.125 1702.29 890.125 1707.22 895.05 1707.22 901.125Z" stroke="#C00000" stroke-width="1.14583" stroke-linejoin="round" stroke-miterlimit="10" stroke-opacity="0.74902" fill="#C00000" fill-opacity="0.25098"/><path d="M1710.22 939.125C1710.22 945.2 1705.29 950.124 1699.22 950.124 1693.14 950.124 1688.22 945.2 1688.22 939.125 1688.22 933.05 1693.14 928.125 1699.22 928.125 1705.29 928.125 1710.22 933.05 1710.22 939.125Z" stroke="#C00000" stroke-width="1.14583" stroke-linejoin="round" stroke-miterlimit="10" stroke-opacity="0.74902" fill="#C00000" fill-opacity="0.25098"/><path d="M1715.22 932.125C1715.22 938.2 1710.29 943.124 1704.22 943.124 1698.14 943.124 1693.22 938.2 1693.22 932.125 1693.22 926.05 1698.14 921.125 1704.22 921.125 1710.29 921.125 1715.22 926.05 1715.22 932.125Z" stroke="#C00000" stroke-width="1.14583" stroke-linejoin="round" stroke-miterlimit="10" stroke-opacity="0.74902" fill="#C00000" fill-opacity="0.25098"/><path d="M1716.22 931.125C1716.22 937.2 1711.29 942.124 1705.22 942.124 1699.14 942.124 1694.22 937.2 1694.22 931.125 1694.22 925.05 1699.14 920.125 1705.22 920.125 1711.29 920.125 1716.22 925.05 1716.22 931.125Z" stroke="#C00000" stroke-width="1.14583" stroke-linejoin="round" stroke-miterlimit="10" stroke-opacity="0.74902" fill="#C00000" fill-opacity="0.25098"/><path d="M1719.22 937.125C1719.22 943.2 1714.29 948.124 1708.22 948.124 1702.14 948.124 1697.22 943.2 1697.22 937.125 1697.22 931.05 1702.14 926.125 1708.22 926.125 1714.29 926.125 1719.22 931.05 1719.22 937.125Z" stroke="#C00000" stroke-width="1.14583" stroke-linejoin="round" stroke-miterlimit="10" stroke-opacity="0.74902" fill="#C00000" fill-opacity="0.25098"/><path d="M1720.22 921.125C1720.22 927.2 1715.29 932.124 1709.22 932.124 1703.14 932.124 1698.22 927.2 1698.22 921.125 1698.22 915.05 1703.14 910.125 1709.22 910.125 1715.29 910.125 1720.22 915.05 1720.22 921.125Z" stroke="#C00000" stroke-width="1.14583" stroke-linejoin="round" stroke-miterlimit="10" stroke-opacity="0.74902" fill="#C00000" fill-opacity="0.25098"/><path d="M1746.22 930.125C1746.22 936.2 1741.29 941.124 1735.22 941.124 1729.14 941.124 1724.22 936.2 1724.22 930.125 1724.22 924.05 1729.14 919.125 1735.22 919.125 1741.29 919.125 1746.22 924.05 1746.22 930.125Z" stroke="#C00000" stroke-width="1.14583" stroke-linejoin="round" stroke-miterlimit="10" stroke-opacity="0.74902" fill="#C00000" fill-opacity="0.25098"/><path d="M1763.22 918.125C1763.22 924.2 1758.29 929.124 1752.22 929.124 1746.14 929.124 1741.22 924.2 1741.22 918.125 1741.22 912.05 1746.14 907.125 1752.22 907.125 1758.29 907.125 1763.22 912.05 1763.22 918.125Z" stroke="#C00000" stroke-width="1.14583" stroke-linejoin="round" stroke-miterlimit="10" stroke-opacity="0.74902" fill="#C00000" fill-opacity="0.25098"/><path d="M1766.22 915.125C1766.22 921.2 1761.29 926.124 1755.22 926.124 1749.14 926.124 1744.22 921.2 1744.22 915.125 1744.22 909.05 1749.14 904.125 1755.22 904.125 1761.29 904.125 1766.22 909.05 1766.22 915.125Z" stroke="#C00000" stroke-width="1.14583" stroke-linejoin="round" stroke-miterlimit="10" stroke-opacity="0.74902" fill="#C00000" fill-opacity="0.25098"/><path d="M1766.22 919.125C1766.22 925.2 1761.29 930.124 1755.22 930.124 1749.14 930.124 1744.22 925.2 1744.22 919.125 1744.22 913.05 1749.14 908.125 1755.22 908.125 1761.29 908.125 1766.22 913.05 1766.22 919.125Z" stroke="#C00000" stroke-width="1.14583" stroke-linejoin="round" stroke-miterlimit="10" stroke-opacity="0.74902" fill="#C00000" fill-opacity="0.25098"/><path d="M1769.22 959.125C1769.22 965.2 1764.29 970.124 1758.22 970.124 1752.14 970.124 1747.22 965.2 1747.22 959.125 1747.22 953.05 1752.14 948.125 1758.22 948.125 1764.29 948.125 1769.22 953.05 1769.22 959.125Z" stroke="#C00000" stroke-width="1.14583" stroke-linejoin="round" stroke-miterlimit="10" stroke-opacity="0.74902" fill="#C00000" fill-opacity="0.25098"/><path d="M1777.22 953.125C1777.22 959.2 1772.29 964.124 1766.22 964.124 1760.14 964.124 1755.22 959.2 1755.22 953.125 1755.22 947.05 1760.14 942.125 1766.22 942.125 1772.29 942.125 1777.22 947.05 1777.22 953.125Z" stroke="#C00000" stroke-width="1.14583" stroke-linejoin="round" stroke-miterlimit="10" stroke-opacity="0.74902" fill="#C00000" fill-opacity="0.25098"/><path d="M1791.22 960.125C1791.22 966.2 1786.29 971.124 1780.22 971.124 1774.14 971.124 1769.22 966.2 1769.22 960.125 1769.22 954.05 1774.14 949.125 1780.22 949.125 1786.29 949.125 1791.22 954.05 1791.22 960.125Z" stroke="#C00000" stroke-width="1.14583" stroke-linejoin="round" stroke-miterlimit="10" stroke-opacity="0.74902" fill="#C00000" fill-opacity="0.25098"/><path d="M1793.22 936.125C1793.22 942.199 1788.29 947.124 1782.22 947.124 1776.14 947.124 1771.22 942.199 1771.22 936.125 1771.22 930.05 1776.14 925.125 1782.22 925.125 1788.29 925.125 1793.22 930.05 1793.22 936.125Z" stroke="#C00000" stroke-width="1.14583" stroke-linejoin="round" stroke-miterlimit="10" stroke-opacity="0.74902" fill="#C00000" fill-opacity="0.25098"/><path d="M1794.22 919.125C1794.22 925.2 1789.29 930.124 1783.22 930.124 1777.14 930.124 1772.22 925.2 1772.22 919.125 1772.22 913.05 1777.14 908.125 1783.22 908.125 1789.29 908.125 1794.22 913.05 1794.22 919.125Z" stroke="#C00000" stroke-width="1.14583" stroke-linejoin="round" stroke-miterlimit="10" stroke-opacity="0.74902" fill="#C00000" fill-opacity="0.25098"/><path d="M1804.22 834.125C1804.22 840.2 1799.29 845.124 1793.22 845.124 1787.14 845.124 1782.22 840.2 1782.22 834.125 1782.22 828.05 1787.14 823.125 1793.22 823.125 1799.29 823.125 1804.22 828.05 1804.22 834.125Z" stroke="#C00000" stroke-width="1.14583" stroke-linejoin="round" stroke-miterlimit="10" stroke-opacity="0.74902" fill="#C00000" fill-opacity="0.25098"/><path d="M1805.22 926.125C1805.22 932.2 1800.29 937.124 1794.22 937.124 1788.14 937.124 1783.22 932.2 1783.22 926.125 1783.22 920.05 1788.14 915.125 1794.22 915.125 1800.29 915.125 1805.22 920.05 1805.22 926.125Z" stroke="#C00000" stroke-width="1.14583" stroke-linejoin="round" stroke-miterlimit="10" stroke-opacity="0.74902" fill="#C00000" fill-opacity="0.25098"/><path d="M1807.22 926.125C1807.22 932.2 1802.29 937.124 1796.22 937.124 1790.14 937.124 1785.22 932.2 1785.22 926.125 1785.22 920.05 1790.14 915.125 1796.22 915.125 1802.29 915.125 1807.22 920.05 1807.22 926.125Z" stroke="#C00000" stroke-width="1.14583" stroke-linejoin="round" stroke-miterlimit="10" stroke-opacity="0.74902" fill="#C00000" fill-opacity="0.25098"/><path d="M1808.22 940.125C1808.22 946.2 1803.29 951.124 1797.22 951.124 1791.14 951.124 1786.22 946.2 1786.22 940.125 1786.22 934.05 1791.14 929.125 1797.22 929.125 1803.29 929.125 1808.22 934.05 1808.22 940.125Z" stroke="#C00000" stroke-width="1.14583" stroke-linejoin="round" stroke-miterlimit="10" stroke-opacity="0.74902" fill="#C00000" fill-opacity="0.25098"/><path d="M1810.22 931.125C1810.22 937.2 1805.29 942.124 1799.22 942.124 1793.14 942.124 1788.22 937.2 1788.22 931.125 1788.22 925.05 1793.14 920.125 1799.22 920.125 1805.29 920.125 1810.22 925.05 1810.22 931.125Z" stroke="#C00000" stroke-width="1.14583" stroke-linejoin="round" stroke-miterlimit="10" stroke-opacity="0.74902" fill="#C00000" fill-opacity="0.25098"/><path d="M1820.22 887.125C1820.22 893.2 1815.29 898.124 1809.22 898.124 1803.14 898.124 1798.22 893.2 1798.22 887.125 1798.22 881.05 1803.14 876.125 1809.22 876.125 1815.29 876.125 1820.22 881.05 1820.22 887.125Z" stroke="#C00000" stroke-width="1.14583" stroke-linejoin="round" stroke-miterlimit="10" stroke-opacity="0.74902" fill="#C00000" fill-opacity="0.25098"/><path d="M1825.22 935.125C1825.22 941.2 1820.29 946.125 1814.22 946.125 1808.14 946.125 1803.22 941.2 1803.22 935.125 1803.22 929.05 1808.14 924.125 1814.22 924.125 1820.29 924.125 1825.22 929.05 1825.22 935.125Z" stroke="#C00000" stroke-width="1.14583" stroke-linejoin="round" stroke-miterlimit="10" stroke-opacity="0.74902" fill="#C00000" fill-opacity="0.25098"/><path d="M1826.22 903.125C1826.22 909.199 1821.29 914.124 1815.22 914.124 1809.14 914.124 1804.22 909.199 1804.22 903.125 1804.22 897.05 1809.14 892.125 1815.22 892.125 1821.29 892.125 1826.22 897.05 1826.22 903.125Z" stroke="#C00000" stroke-width="1.14583" stroke-linejoin="round" stroke-miterlimit="10" stroke-opacity="0.74902" fill="#C00000" fill-opacity="0.25098"/><path d="M1832.22 926.125C1832.22 932.2 1827.29 937.124 1821.22 937.124 1815.14 937.124 1810.22 932.2 1810.22 926.125 1810.22 920.05 1815.14 915.125 1821.22 915.125 1827.29 915.125 1832.22 920.05 1832.22 926.125Z" stroke="#C00000" stroke-width="1.14583" stroke-linejoin="round" stroke-miterlimit="10" stroke-opacity="0.74902" fill="#C00000" fill-opacity="0.25098"/><path d="M1832.22 915.125C1832.22 921.2 1827.29 926.124 1821.22 926.124 1815.14 926.124 1810.22 921.2 1810.22 915.125 1810.22 909.05 1815.14 904.125 1821.22 904.125 1827.29 904.125 1832.22 909.05 1832.22 915.125Z" stroke="#C00000" stroke-width="1.14583" stroke-linejoin="round" stroke-miterlimit="10" stroke-opacity="0.74902" fill="#C00000" fill-opacity="0.25098"/><path d="M1833.22 923.125C1833.22 929.2 1828.29 934.124 1822.22 934.124 1816.14 934.124 1811.22 929.2 1811.22 923.125 1811.22 917.05 1816.14 912.125 1822.22 912.125 1828.29 912.125 1833.22 917.05 1833.22 923.125Z" stroke="#C00000" stroke-width="1.14583" stroke-linejoin="round" stroke-miterlimit="10" stroke-opacity="0.74902" fill="#C00000" fill-opacity="0.25098"/><path d="M1834.22 875.125C1834.22 881.2 1829.29 886.124 1823.22 886.124 1817.14 886.124 1812.22 881.2 1812.22 875.125 1812.22 869.05 1817.14 864.125 1823.22 864.125 1829.29 864.125 1834.22 869.05 1834.22 875.125Z" stroke="#C00000" stroke-width="1.14583" stroke-linejoin="round" stroke-miterlimit="10" stroke-opacity="0.74902" fill="#C00000" fill-opacity="0.25098"/><path d="M1839.22 918.125C1839.22 924.2 1834.29 929.124 1828.22 929.124 1822.14 929.124 1817.22 924.2 1817.22 918.125 1817.22 912.05 1822.14 907.125 1828.22 907.125 1834.29 907.125 1839.22 912.05 1839.22 918.125Z" stroke="#C00000" stroke-width="1.14583" stroke-linejoin="round" stroke-miterlimit="10" stroke-opacity="0.74902" fill="#C00000" fill-opacity="0.25098"/><path d="M1841.22 888.125C1841.22 894.2 1836.29 899.124 1830.22 899.124 1824.14 899.124 1819.22 894.2 1819.22 888.125 1819.22 882.05 1824.14 877.125 1830.22 877.125 1836.29 877.125 1841.22 882.05 1841.22 888.125Z" stroke="#C00000" stroke-width="1.14583" stroke-linejoin="round" stroke-miterlimit="10" stroke-opacity="0.74902" fill="#C00000" fill-opacity="0.25098"/><path d="M1844.22 861.125C1844.22 867.2 1839.29 872.124 1833.22 872.124 1827.14 872.124 1822.22 867.2 1822.22 861.125 1822.22 855.05 1827.14 850.125 1833.22 850.125 1839.29 850.125 1844.22 855.05 1844.22 861.125Z" stroke="#C00000" stroke-width="1.14583" stroke-linejoin="round" stroke-miterlimit="10" stroke-opacity="0.74902" fill="#C00000" fill-opacity="0.25098"/><path d="M1845.22 910.125C1845.22 916.2 1840.29 921.124 1834.22 921.124 1828.14 921.124 1823.22 916.2 1823.22 910.125 1823.22 904.05 1828.14 899.125 1834.22 899.125 1840.29 899.125 1845.22 904.05 1845.22 910.125Z" stroke="#C00000" stroke-width="1.14583" stroke-linejoin="round" stroke-miterlimit="10" stroke-opacity="0.74902" fill="#C00000" fill-opacity="0.25098"/><path d="M1860.22 923.125C1860.22 929.2 1855.29 934.124 1849.22 934.124 1843.14 934.124 1838.22 929.2 1838.22 923.125 1838.22 917.05 1843.14 912.125 1849.22 912.125 1855.29 912.125 1860.22 917.05 1860.22 923.125Z" stroke="#C00000" stroke-width="1.14583" stroke-linejoin="round" stroke-miterlimit="10" stroke-opacity="0.74902" fill="#C00000" fill-opacity="0.25098"/><path d="M1872.22 927.125C1872.22 933.2 1867.29 938.124 1861.22 938.124 1855.14 938.124 1850.22 933.2 1850.22 927.125 1850.22 921.05 1855.14 916.125 1861.22 916.125 1867.29 916.125 1872.22 921.05 1872.22 927.125Z" stroke="#C00000" stroke-width="1.14583" stroke-linejoin="round" stroke-miterlimit="10" stroke-opacity="0.74902" fill="#C00000" fill-opacity="0.25098"/><path d="M1875.22 961.125C1875.22 967.2 1870.29 972.124 1864.22 972.124 1858.14 972.124 1853.22 967.2 1853.22 961.125 1853.22 955.05 1858.14 950.125 1864.22 950.125 1870.29 950.125 1875.22 955.05 1875.22 961.125Z" stroke="#C00000" stroke-width="1.14583" stroke-linejoin="round" stroke-miterlimit="10" stroke-opacity="0.74902" fill="#C00000" fill-opacity="0.25098"/><path d="M1890.22 929.125C1890.22 935.2 1885.29 940.124 1879.22 940.124 1873.14 940.124 1868.22 935.2 1868.22 929.125 1868.22 923.05 1873.14 918.125 1879.22 918.125 1885.29 918.125 1890.22 923.05 1890.22 929.125Z" stroke="#C00000" stroke-width="1.14583" stroke-linejoin="round" stroke-miterlimit="10" stroke-opacity="0.74902" fill="#C00000" fill-opacity="0.25098"/><path d="M1917.22 892.125C1917.22 898.199 1912.29 903.124 1906.22 903.124 1900.14 903.124 1895.22 898.199 1895.22 892.125 1895.22 886.05 1900.14 881.125 1906.22 881.125 1912.29 881.125 1917.22 886.05 1917.22 892.125Z" stroke="#C00000" stroke-width="1.14583" stroke-linejoin="round" stroke-miterlimit="10" stroke-opacity="0.74902" fill="#C00000" fill-opacity="0.25098"/><path d="M1926.22 880.125C1926.22 886.2 1921.29 891.125 1915.22 891.125 1909.14 891.125 1904.22 886.2 1904.22 880.125 1904.22 874.05 1909.14 869.125 1915.22 869.125 1921.29 869.125 1926.22 874.05 1926.22 880.125Z" stroke="#C00000" stroke-width="1.14583" stroke-linejoin="round" stroke-miterlimit="10" stroke-opacity="0.74902" fill="#C00000" fill-opacity="0.25098"/><path d="M1930.22 885.125C1930.22 891.2 1925.29 896.124 1919.22 896.124 1913.14 896.124 1908.22 891.2 1908.22 885.125 1908.22 879.05 1913.14 874.125 1919.22 874.125 1925.29 874.125 1930.22 879.05 1930.22 885.125Z" stroke="#C00000" stroke-width="1.14583" stroke-linejoin="round" stroke-miterlimit="10" stroke-opacity="0.74902" fill="#C00000" fill-opacity="0.25098"/><path d="M1932.22 936.125C1932.22 942.199 1927.29 947.124 1921.22 947.124 1915.14 947.124 1910.22 942.199 1910.22 936.125 1910.22 930.05 1915.14 925.125 1921.22 925.125 1927.29 925.125 1932.22 930.05 1932.22 936.125Z" stroke="#C00000" stroke-width="1.14583" stroke-linejoin="round" stroke-miterlimit="10" stroke-opacity="0.74902" fill="#C00000" fill-opacity="0.25098"/><path d="M1936.22 918.125C1936.22 924.2 1931.29 929.124 1925.22 929.124 1919.14 929.124 1914.22 924.2 1914.22 918.125 1914.22 912.05 1919.14 907.125 1925.22 907.125 1931.29 907.125 1936.22 912.05 1936.22 918.125Z" stroke="#C00000" stroke-width="1.14583" stroke-linejoin="round" stroke-miterlimit="10" stroke-opacity="0.74902" fill="#C00000" fill-opacity="0.25098"/><path d="M1957.22 918.125C1957.22 924.2 1952.29 929.124 1946.22 929.124 1940.14 929.124 1935.22 924.2 1935.22 918.125 1935.22 912.05 1940.14 907.125 1946.22 907.125 1952.29 907.125 1957.22 912.05 1957.22 918.125Z" stroke="#C00000" stroke-width="1.14583" stroke-linejoin="round" stroke-miterlimit="10" stroke-opacity="0.74902" fill="#C00000" fill-opacity="0.25098"/><path d="M1961.22 921.125C1961.22 927.2 1956.29 932.124 1950.22 932.124 1944.14 932.124 1939.22 927.2 1939.22 921.125 1939.22 915.05 1944.14 910.125 1950.22 910.125 1956.29 910.125 1961.22 915.05 1961.22 921.125Z" stroke="#C00000" stroke-width="1.14583" stroke-linejoin="round" stroke-miterlimit="10" stroke-opacity="0.74902" fill="#C00000" fill-opacity="0.25098"/><path d="M1997.22 895.125C1997.22 901.2 1992.29 906.124 1986.22 906.124 1980.14 906.124 1975.22 901.2 1975.22 895.125 1975.22 889.05 1980.14 884.125 1986.22 884.125 1992.29 884.125 1997.22 889.05 1997.22 895.125Z" stroke="#C00000" stroke-width="1.14583" stroke-linejoin="round" stroke-miterlimit="10" stroke-opacity="0.74902" fill="#C00000" fill-opacity="0.25098"/><path d="M2012.22 892.125C2012.22 898.199 2007.29 903.124 2001.22 903.124 1995.14 903.124 1990.22 898.199 1990.22 892.125 1990.22 886.05 1995.14 881.125 2001.22 881.125 2007.29 881.125 2012.22 886.05 2012.22 892.125Z" stroke="#C00000" stroke-width="1.14583" stroke-linejoin="round" stroke-miterlimit="10" stroke-opacity="0.74902" fill="#C00000" fill-opacity="0.25098"/><path d="M2042.22 936.125C2042.22 942.199 2037.29 947.124 2031.22 947.124 2025.14 947.124 2020.22 942.199 2020.22 936.125 2020.22 930.05 2025.14 925.125 2031.22 925.125 2037.29 925.125 2042.22 930.05 2042.22 936.125Z" stroke="#C00000" stroke-width="1.14583" stroke-linejoin="round" stroke-miterlimit="10" stroke-opacity="0.74902" fill="#C00000" fill-opacity="0.25098"/></g><g clip-path="url(#clip6)"><path d="M1798.22 741.125C1798.22 747.2 1793.29 752.124 1787.22 752.124 1781.14 752.124 1776.22 747.2 1776.22 741.125 1776.22 735.05 1781.14 730.125 1787.22 730.125 1793.29 730.125 1798.22 735.05 1798.22 741.125Z" stroke="#548235" stroke-width="1.14583" stroke-linejoin="round" stroke-miterlimit="10" stroke-opacity="0.74902" fill="#548235" fill-opacity="0.25098"/><path d="M1813.22 742.125C1813.22 748.2 1808.29 753.124 1802.22 753.124 1796.14 753.124 1791.22 748.2 1791.22 742.125 1791.22 736.05 1796.14 731.125 1802.22 731.125 1808.29 731.125 1813.22 736.05 1813.22 742.125Z" stroke="#548235" stroke-width="1.14583" stroke-linejoin="round" stroke-miterlimit="10" stroke-opacity="0.74902" fill="#548235" fill-opacity="0.25098"/><path d="M1828.22 741.125C1828.22 747.2 1823.29 752.124 1817.22 752.124 1811.14 752.124 1806.22 747.2 1806.22 741.125 1806.22 735.05 1811.14 730.125 1817.22 730.125 1823.29 730.125 1828.22 735.05 1828.22 741.125Z" stroke="#548235" stroke-width="1.14583" stroke-linejoin="round" stroke-miterlimit="10" stroke-opacity="0.74902" fill="#548235" fill-opacity="0.25098"/><path d="M1835.22 733.125C1835.22 739.2 1830.29 744.124 1824.22 744.124 1818.14 744.124 1813.22 739.2 1813.22 733.125 1813.22 727.05 1818.14 722.125 1824.22 722.125 1830.29 722.125 1835.22 727.05 1835.22 733.125Z" stroke="#548235" stroke-width="1.14583" stroke-linejoin="round" stroke-miterlimit="10" stroke-opacity="0.74902" fill="#548235" fill-opacity="0.25098"/><path d="M1856.22 654.125C1856.22 660.2 1851.29 665.124 1845.22 665.124 1839.14 665.124 1834.22 660.2 1834.22 654.125 1834.22 648.05 1839.14 643.125 1845.22 643.125 1851.29 643.125 1856.22 648.05 1856.22 654.125Z" stroke="#548235" stroke-width="1.14583" stroke-linejoin="round" stroke-miterlimit="10" stroke-opacity="0.74902" fill="#548235" fill-opacity="0.25098"/><path d="M1916.22 622.125C1916.22 628.2 1911.29 633.124 1905.22 633.124 1899.14 633.124 1894.22 628.2 1894.22 622.125 1894.22 616.05 1899.14 611.125 1905.22 611.125 1911.29 611.125 1916.22 616.05 1916.22 622.125Z" stroke="#548235" stroke-width="1.14583" stroke-linejoin="round" stroke-miterlimit="10" stroke-opacity="0.74902" fill="#548235" fill-opacity="0.25098"/><path d="M1939.22 684.125C1939.22 690.2 1934.29 695.124 1928.22 695.124 1922.14 695.124 1917.22 690.2 1917.22 684.125 1917.22 678.05 1922.14 673.125 1928.22 673.125 1934.29 673.125 1939.22 678.05 1939.22 684.125Z" stroke="#548235" stroke-width="1.14583" stroke-linejoin="round" stroke-miterlimit="10" stroke-opacity="0.74902" fill="#548235" fill-opacity="0.25098"/><path d="M1940.22 685.125C1940.22 691.2 1935.29 696.124 1929.22 696.124 1923.14 696.124 1918.22 691.2 1918.22 685.125 1918.22 679.05 1923.14 674.125 1929.22 674.125 1935.29 674.125 1940.22 679.05 1940.22 685.125Z" stroke="#548235" stroke-width="1.14583" stroke-linejoin="round" stroke-miterlimit="10" stroke-opacity="0.74902" fill="#548235" fill-opacity="0.25098"/><path d="M1950.22 695.125C1950.22 701.2 1945.29 706.124 1939.22 706.124 1933.14 706.124 1928.22 701.2 1928.22 695.125 1928.22 689.05 1933.14 684.125 1939.22 684.125 1945.29 684.125 1950.22 689.05 1950.22 695.125Z" stroke="#548235" stroke-width="1.14583" stroke-linejoin="round" stroke-miterlimit="10" stroke-opacity="0.74902" fill="#548235" fill-opacity="0.25098"/><path d="M1952.22 738.125C1952.22 744.199 1947.29 749.124 1941.22 749.124 1935.14 749.124 1930.22 744.199 1930.22 738.125 1930.22 732.05 1935.14 727.125 1941.22 727.125 1947.29 727.125 1952.22 732.05 1952.22 738.125Z" stroke="#548235" stroke-width="1.14583" stroke-linejoin="round" stroke-miterlimit="10" stroke-opacity="0.74902" fill="#548235" fill-opacity="0.25098"/><path d="M1952.22 720.125C1952.22 726.2 1947.29 731.124 1941.22 731.124 1935.14 731.124 1930.22 726.2 1930.22 720.125 1930.22 714.05 1935.14 709.125 1941.22 709.125 1947.29 709.125 1952.22 714.05 1952.22 720.125Z" stroke="#548235" stroke-width="1.14583" stroke-linejoin="round" stroke-miterlimit="10" stroke-opacity="0.74902" fill="#548235" fill-opacity="0.25098"/><path d="M1965.22 673.125C1965.22 679.2 1960.29 684.124 1954.22 684.124 1948.14 684.124 1943.22 679.2 1943.22 673.125 1943.22 667.05 1948.14 662.125 1954.22 662.125 1960.29 662.125 1965.22 667.05 1965.22 673.125Z" stroke="#548235" stroke-width="1.14583" stroke-linejoin="round" stroke-miterlimit="10" stroke-opacity="0.74902" fill="#548235" fill-opacity="0.25098"/><path d="M1965.22 722.125C1965.22 728.2 1960.29 733.124 1954.22 733.124 1948.14 733.124 1943.22 728.2 1943.22 722.125 1943.22 716.05 1948.14 711.125 1954.22 711.125 1960.29 711.125 1965.22 716.05 1965.22 722.125Z" stroke="#548235" stroke-width="1.14583" stroke-linejoin="round" stroke-miterlimit="10" stroke-opacity="0.74902" fill="#548235" fill-opacity="0.25098"/><path d="M1979.22 683.125C1979.22 689.199 1974.29 694.124 1968.22 694.124 1962.14 694.124 1957.22 689.199 1957.22 683.125 1957.22 677.05 1962.14 672.125 1968.22 672.125 1974.29 672.125 1979.22 677.05 1979.22 683.125Z" stroke="#548235" stroke-width="1.14583" stroke-linejoin="round" stroke-miterlimit="10" stroke-opacity="0.74902" fill="#548235" fill-opacity="0.25098"/><path d="M1983.22 684.125C1983.22 690.2 1978.29 695.124 1972.22 695.124 1966.14 695.124 1961.22 690.2 1961.22 684.125 1961.22 678.05 1966.14 673.125 1972.22 673.125 1978.29 673.125 1983.22 678.05 1983.22 684.125Z" stroke="#548235" stroke-width="1.14583" stroke-linejoin="round" stroke-miterlimit="10" stroke-opacity="0.74902" fill="#548235" fill-opacity="0.25098"/><path d="M1986.22 635.125C1986.22 641.2 1981.29 646.124 1975.22 646.124 1969.14 646.124 1964.22 641.2 1964.22 635.125 1964.22 629.05 1969.14 624.125 1975.22 624.125 1981.29 624.125 1986.22 629.05 1986.22 635.125Z" stroke="#548235" stroke-width="1.14583" stroke-linejoin="round" stroke-miterlimit="10" stroke-opacity="0.74902" fill="#548235" fill-opacity="0.25098"/><path d="M1998.22 704.125C1998.22 710.2 1993.29 715.125 1987.22 715.125 1981.14 715.125 1976.22 710.2 1976.22 704.125 1976.22 698.05 1981.14 693.125 1987.22 693.125 1993.29 693.125 1998.22 698.05 1998.22 704.125Z" stroke="#548235" stroke-width="1.14583" stroke-linejoin="round" stroke-miterlimit="10" stroke-opacity="0.74902" fill="#548235" fill-opacity="0.25098"/><path d="M2001.22 742.125C2001.22 748.2 1996.29 753.124 1990.22 753.124 1984.14 753.124 1979.22 748.2 1979.22 742.125 1979.22 736.05 1984.14 731.125 1990.22 731.125 1996.29 731.125 2001.22 736.05 2001.22 742.125Z" stroke="#548235" stroke-width="1.14583" stroke-linejoin="round" stroke-miterlimit="10" stroke-opacity="0.74902" fill="#548235" fill-opacity="0.25098"/><path d="M2002.22 674.125C2002.22 680.2 1997.29 685.124 1991.22 685.124 1985.14 685.124 1980.22 680.2 1980.22 674.125 1980.22 668.05 1985.14 663.125 1991.22 663.125 1997.29 663.125 2002.22 668.05 2002.22 674.125Z" stroke="#548235" stroke-width="1.14583" stroke-linejoin="round" stroke-miterlimit="10" stroke-opacity="0.74902" fill="#548235" fill-opacity="0.25098"/><path d="M2014.22 686.125C2014.22 692.2 2009.29 697.124 2003.22 697.124 1997.14 697.124 1992.22 692.2 1992.22 686.125 1992.22 680.05 1997.14 675.125 2003.22 675.125 2009.29 675.125 2014.22 680.05 2014.22 686.125Z" stroke="#548235" stroke-width="1.14583" stroke-linejoin="round" stroke-miterlimit="10" stroke-opacity="0.74902" fill="#548235" fill-opacity="0.25098"/><path d="M2018.22 668.125C2018.22 674.2 2013.29 679.124 2007.22 679.124 2001.14 679.124 1996.22 674.2 1996.22 668.125 1996.22 662.05 2001.14 657.125 2007.22 657.125 2013.29 657.125 2018.22 662.05 2018.22 668.125Z" stroke="#548235" stroke-width="1.14583" stroke-linejoin="round" stroke-miterlimit="10" stroke-opacity="0.74902" fill="#548235" fill-opacity="0.25098"/><path d="M2021.22 693.125C2021.22 699.2 2016.29 704.125 2010.22 704.125 2004.14 704.125 1999.22 699.2 1999.22 693.125 1999.22 687.05 2004.14 682.125 2010.22 682.125 2016.29 682.125 2021.22 687.05 2021.22 693.125Z" stroke="#548235" stroke-width="1.14583" stroke-linejoin="round" stroke-miterlimit="10" stroke-opacity="0.74902" fill="#548235" fill-opacity="0.25098"/><path d="M2037.22 753.125C2037.22 759.2 2032.29 764.124 2026.22 764.124 2020.14 764.124 2015.22 759.2 2015.22 753.125 2015.22 747.05 2020.14 742.125 2026.22 742.125 2032.29 742.125 2037.22 747.05 2037.22 753.125Z" stroke="#548235" stroke-width="1.14583" stroke-linejoin="round" stroke-miterlimit="10" stroke-opacity="0.74902" fill="#548235" fill-opacity="0.25098"/><path d="M2044.22 709.125C2044.22 715.2 2039.29 720.124 2033.22 720.124 2027.14 720.124 2022.22 715.2 2022.22 709.125 2022.22 703.05 2027.14 698.125 2033.22 698.125 2039.29 698.125 2044.22 703.05 2044.22 709.125Z" stroke="#548235" stroke-width="1.14583" stroke-linejoin="round" stroke-miterlimit="10" stroke-opacity="0.74902" fill="#548235" fill-opacity="0.25098"/><path d="M2056.22 570.125C2056.22 576.2 2051.29 581.124 2045.22 581.124 2039.14 581.124 2034.22 576.2 2034.22 570.125 2034.22 564.05 2039.14 559.125 2045.22 559.125 2051.29 559.125 2056.22 564.05 2056.22 570.125Z" stroke="#548235" stroke-width="1.14583" stroke-linejoin="round" stroke-miterlimit="10" stroke-opacity="0.74902" fill="#548235" fill-opacity="0.25098"/><path d="M2057.22 631.125C2057.22 637.2 2052.29 642.124 2046.22 642.124 2040.14 642.124 2035.22 637.2 2035.22 631.125 2035.22 625.05 2040.14 620.125 2046.22 620.125 2052.29 620.125 2057.22 625.05 2057.22 631.125Z" stroke="#548235" stroke-width="1.14583" stroke-linejoin="round" stroke-miterlimit="10" stroke-opacity="0.74902" fill="#548235" fill-opacity="0.25098"/><path d="M2074.22 606.125C2074.22 612.199 2069.29 617.124 2063.22 617.124 2057.14 617.124 2052.22 612.199 2052.22 606.125 2052.22 600.05 2057.14 595.125 2063.22 595.125 2069.29 595.125 2074.22 600.05 2074.22 606.125Z" stroke="#548235" stroke-width="1.14583" stroke-linejoin="round" stroke-miterlimit="10" stroke-opacity="0.74902" fill="#548235" fill-opacity="0.25098"/><path d="M2086.22 615.125C2086.22 621.2 2081.29 626.124 2075.22 626.124 2069.14 626.124 2064.22 621.2 2064.22 615.125 2064.22 609.05 2069.14 604.125 2075.22 604.125 2081.29 604.125 2086.22 609.05 2086.22 615.125Z" stroke="#548235" stroke-width="1.14583" stroke-linejoin="round" stroke-miterlimit="10" stroke-opacity="0.74902" fill="#548235" fill-opacity="0.25098"/><path d="M2089.22 634.125C2089.22 640.2 2084.29 645.124 2078.22 645.124 2072.14 645.124 2067.22 640.2 2067.22 634.125 2067.22 628.05 2072.14 623.125 2078.22 623.125 2084.29 623.125 2089.22 628.05 2089.22 634.125Z" stroke="#548235" stroke-width="1.14583" stroke-linejoin="round" stroke-miterlimit="10" stroke-opacity="0.74902" fill="#548235" fill-opacity="0.25098"/><path d="M2091.22 740.125C2091.22 746.2 2086.29 751.124 2080.22 751.124 2074.14 751.124 2069.22 746.2 2069.22 740.125 2069.22 734.05 2074.14 729.125 2080.22 729.125 2086.29 729.125 2091.22 734.05 2091.22 740.125Z" stroke="#548235" stroke-width="1.14583" stroke-linejoin="round" stroke-miterlimit="10" stroke-opacity="0.74902" fill="#548235" fill-opacity="0.25098"/><path d="M2101.22 702.125C2101.22 708.2 2096.29 713.124 2090.22 713.124 2084.14 713.124 2079.22 708.2 2079.22 702.125 2079.22 696.05 2084.14 691.125 2090.22 691.125 2096.29 691.125 2101.22 696.05 2101.22 702.125Z" stroke="#548235" stroke-width="1.14583" stroke-linejoin="round" stroke-miterlimit="10" stroke-opacity="0.74902" fill="#548235" fill-opacity="0.25098"/><path d="M2101.22 669.125C2101.22 675.2 2096.29 680.124 2090.22 680.124 2084.14 680.124 2079.22 675.2 2079.22 669.125 2079.22 663.05 2084.14 658.125 2090.22 658.125 2096.29 658.125 2101.22 663.05 2101.22 669.125Z" stroke="#548235" stroke-width="1.14583" stroke-linejoin="round" stroke-miterlimit="10" stroke-opacity="0.74902" fill="#548235" fill-opacity="0.25098"/><path d="M2104.22 646.125C2104.22 652.2 2099.29 657.124 2093.22 657.124 2087.14 657.124 2082.22 652.2 2082.22 646.125 2082.22 640.05 2087.14 635.125 2093.22 635.125 2099.29 635.125 2104.22 640.05 2104.22 646.125Z" stroke="#548235" stroke-width="1.14583" stroke-linejoin="round" stroke-miterlimit="10" stroke-opacity="0.74902" fill="#548235" fill-opacity="0.25098"/><path d="M2125.22 661.125C2125.22 667.199 2120.29 672.124 2114.22 672.124 2108.14 672.124 2103.22 667.199 2103.22 661.125 2103.22 655.05 2108.14 650.125 2114.22 650.125 2120.29 650.125 2125.22 655.05 2125.22 661.125Z" stroke="#548235" stroke-width="1.14583" stroke-linejoin="round" stroke-miterlimit="10" stroke-opacity="0.74902" fill="#548235" fill-opacity="0.25098"/><path d="M2131.22 638.125C2131.22 644.2 2126.29 649.125 2120.22 649.125 2114.14 649.125 2109.22 644.2 2109.22 638.125 2109.22 632.05 2114.14 627.125 2120.22 627.125 2126.29 627.125 2131.22 632.05 2131.22 638.125Z" stroke="#548235" stroke-width="1.14583" stroke-linejoin="round" stroke-miterlimit="10" stroke-opacity="0.74902" fill="#548235" fill-opacity="0.25098"/><path d="M2143.22 680.125C2143.22 686.2 2138.29 691.124 2132.22 691.124 2126.14 691.124 2121.22 686.2 2121.22 680.125 2121.22 674.05 2126.14 669.125 2132.22 669.125 2138.29 669.125 2143.22 674.05 2143.22 680.125Z" stroke="#548235" stroke-width="1.14583" stroke-linejoin="round" stroke-miterlimit="10" stroke-opacity="0.74902" fill="#548235" fill-opacity="0.25098"/><path d="M2161.22 685.125C2161.22 691.2 2156.29 696.124 2150.22 696.124 2144.14 696.124 2139.22 691.2 2139.22 685.125 2139.22 679.05 2144.14 674.125 2150.22 674.125 2156.29 674.125 2161.22 679.05 2161.22 685.125Z" stroke="#548235" stroke-width="1.14583" stroke-linejoin="round" stroke-miterlimit="10" stroke-opacity="0.74902" fill="#548235" fill-opacity="0.25098"/><path d="M2162.22 625.125C2162.22 631.2 2157.29 636.124 2151.22 636.124 2145.14 636.124 2140.22 631.2 2140.22 625.125 2140.22 619.05 2145.14 614.125 2151.22 614.125 2157.29 614.125 2162.22 619.05 2162.22 625.125Z" stroke="#548235" stroke-width="1.14583" stroke-linejoin="round" stroke-miterlimit="10" stroke-opacity="0.74902" fill="#548235" fill-opacity="0.25098"/><path d="M2166.22 614.125C2166.22 620.2 2161.29 625.124 2155.22 625.124 2149.14 625.124 2144.22 620.2 2144.22 614.125 2144.22 608.05 2149.14 603.125 2155.22 603.125 2161.29 603.125 2166.22 608.05 2166.22 614.125Z" stroke="#548235" stroke-width="1.14583" stroke-linejoin="round" stroke-miterlimit="10" stroke-opacity="0.74902" fill="#548235" fill-opacity="0.25098"/><path d="M2189.22 673.125C2189.22 679.2 2184.29 684.124 2178.22 684.124 2172.14 684.124 2167.22 679.2 2167.22 673.125 2167.22 667.05 2172.14 662.125 2178.22 662.125 2184.29 662.125 2189.22 667.05 2189.22 673.125Z" stroke="#548235" stroke-width="1.14583" stroke-linejoin="round" stroke-miterlimit="10" stroke-opacity="0.74902" fill="#548235" fill-opacity="0.25098"/><path d="M2205.22 620.125C2205.22 626.2 2200.29 631.124 2194.22 631.124 2188.14 631.124 2183.22 626.2 2183.22 620.125 2183.22 614.05 2188.14 609.125 2194.22 609.125 2200.29 609.125 2205.22 614.05 2205.22 620.125Z" stroke="#548235" stroke-width="1.14583" stroke-linejoin="round" stroke-miterlimit="10" stroke-opacity="0.74902" fill="#548235" fill-opacity="0.25098"/><path d="M2231.22 641.125C2231.22 647.2 2226.29 652.124 2220.22 652.124 2214.14 652.124 2209.22 647.2 2209.22 641.125 2209.22 635.05 2214.14 630.125 2220.22 630.125 2226.29 630.125 2231.22 635.05 2231.22 641.125Z" stroke="#548235" stroke-width="1.14583" stroke-linejoin="round" stroke-miterlimit="10" stroke-opacity="0.74902" fill="#548235" fill-opacity="0.25098"/><path d="M2247.22 660.125C2247.22 666.2 2242.29 671.125 2236.22 671.125 2230.14 671.125 2225.22 666.2 2225.22 660.125 2225.22 654.05 2230.14 649.125 2236.22 649.125 2242.29 649.125 2247.22 654.05 2247.22 660.125Z" stroke="#548235" stroke-width="1.14583" stroke-linejoin="round" stroke-miterlimit="10" stroke-opacity="0.74902" fill="#548235" fill-opacity="0.25098"/><path d="M2262.22 670.125C2262.22 676.2 2257.29 681.124 2251.22 681.124 2245.14 681.124 2240.22 676.2 2240.22 670.125 2240.22 664.05 2245.14 659.125 2251.22 659.125 2257.29 659.125 2262.22 664.05 2262.22 670.125Z" stroke="#548235" stroke-width="1.14583" stroke-linejoin="round" stroke-miterlimit="10" stroke-opacity="0.74902" fill="#548235" fill-opacity="0.25098"/><path d="M2268.22 659.125C2268.22 665.2 2263.29 670.124 2257.22 670.124 2251.14 670.124 2246.22 665.2 2246.22 659.125 2246.22 653.05 2251.14 648.125 2257.22 648.125 2263.29 648.125 2268.22 653.05 2268.22 659.125Z" stroke="#548235" stroke-width="1.14583" stroke-linejoin="round" stroke-miterlimit="10" stroke-opacity="0.74902" fill="#548235" fill-opacity="0.25098"/><path d="M2276.22 577.125C2276.22 583.2 2271.29 588.124 2265.22 588.124 2259.14 588.124 2254.22 583.2 2254.22 577.125 2254.22 571.05 2259.14 566.125 2265.22 566.125 2271.29 566.125 2276.22 571.05 2276.22 577.125Z" stroke="#548235" stroke-width="1.14583" stroke-linejoin="round" stroke-miterlimit="10" stroke-opacity="0.74902" fill="#548235" fill-opacity="0.25098"/><path d="M2291.22 635.125C2291.22 641.2 2286.29 646.124 2280.22 646.124 2274.14 646.124 2269.22 641.2 2269.22 635.125 2269.22 629.05 2274.14 624.125 2280.22 624.125 2286.29 624.125 2291.22 629.05 2291.22 635.125Z" stroke="#548235" stroke-width="1.14583" stroke-linejoin="round" stroke-miterlimit="10" stroke-opacity="0.74902" fill="#548235" fill-opacity="0.25098"/><path d="M2302.22 660.125C2302.22 666.2 2297.29 671.125 2291.22 671.125 2285.14 671.125 2280.22 666.2 2280.22 660.125 2280.22 654.05 2285.14 649.125 2291.22 649.125 2297.29 649.125 2302.22 654.05 2302.22 660.125Z" stroke="#548235" stroke-width="1.14583" stroke-linejoin="round" stroke-miterlimit="10" stroke-opacity="0.74902" fill="#548235" fill-opacity="0.25098"/><path d="M2322.22 642.125C2322.22 648.2 2317.29 653.124 2311.22 653.124 2305.14 653.124 2300.22 648.2 2300.22 642.125 2300.22 636.05 2305.14 631.125 2311.22 631.125 2317.29 631.125 2322.22 636.05 2322.22 642.125Z" stroke="#548235" stroke-width="1.14583" stroke-linejoin="round" stroke-miterlimit="10" stroke-opacity="0.74902" fill="#548235" fill-opacity="0.25098"/><path d="M2347.22 665.125C2347.22 671.2 2342.29 676.124 2336.22 676.124 2330.14 676.124 2325.22 671.2 2325.22 665.125 2325.22 659.05 2330.14 654.125 2336.22 654.125 2342.29 654.125 2347.22 659.05 2347.22 665.125Z" stroke="#548235" stroke-width="1.14583" stroke-linejoin="round" stroke-miterlimit="10" stroke-opacity="0.74902" fill="#548235" fill-opacity="0.25098"/></g><g clip-path="url(#clip7)"><path d="M1787.22 585.125C1787.22 591.2 1782.29 596.124 1776.22 596.124 1770.14 596.124 1765.22 591.2 1765.22 585.125 1765.22 579.05 1770.14 574.125 1776.22 574.125 1782.29 574.125 1787.22 579.05 1787.22 585.125Z" stroke="#5B9BD5" stroke-width="1.14583" stroke-linejoin="round" stroke-miterlimit="10" stroke-opacity="0.74902" fill="#5B9BD5" fill-opacity="0.25098"/><path d="M1989.22 519.125C1989.22 525.199 1984.29 530.124 1978.22 530.124 1972.14 530.124 1967.22 525.199 1967.22 519.125 1967.22 513.05 1972.14 508.125 1978.22 508.125 1984.29 508.125 1989.22 513.05 1989.22 519.125Z" stroke="#5B9BD5" stroke-width="1.14583" stroke-linejoin="round" stroke-miterlimit="10" stroke-opacity="0.74902" fill="#5B9BD5" fill-opacity="0.25098"/><path d="M2009.22 522.125C2009.22 528.2 2004.29 533.124 1998.22 533.124 1992.14 533.124 1987.22 528.2 1987.22 522.125 1987.22 516.05 1992.14 511.125 1998.22 511.125 2004.29 511.125 2009.22 516.05 2009.22 522.125Z" stroke="#5B9BD5" stroke-width="1.14583" stroke-linejoin="round" stroke-miterlimit="10" stroke-opacity="0.74902" fill="#5B9BD5" fill-opacity="0.25098"/><path d="M2024.22 436.125C2024.22 442.2 2019.29 447.124 2013.22 447.124 2007.14 447.124 2002.22 442.2 2002.22 436.125 2002.22 430.05 2007.14 425.125 2013.22 425.125 2019.29 425.125 2024.22 430.05 2024.22 436.125Z" stroke="#5B9BD5" stroke-width="1.14583" stroke-linejoin="round" stroke-miterlimit="10" stroke-opacity="0.74902" fill="#5B9BD5" fill-opacity="0.25098"/><path d="M2031.22 530.125C2031.22 536.2 2026.29 541.124 2020.22 541.124 2014.14 541.124 2009.22 536.2 2009.22 530.125 2009.22 524.05 2014.14 519.125 2020.22 519.125 2026.29 519.125 2031.22 524.05 2031.22 530.125Z" stroke="#5B9BD5" stroke-width="1.14583" stroke-linejoin="round" stroke-miterlimit="10" stroke-opacity="0.74902" fill="#5B9BD5" fill-opacity="0.25098"/><path d="M2041.22 530.125C2041.22 536.2 2036.29 541.124 2030.22 541.124 2024.14 541.124 2019.22 536.2 2019.22 530.125 2019.22 524.05 2024.14 519.125 2030.22 519.125 2036.29 519.125 2041.22 524.05 2041.22 530.125Z" stroke="#5B9BD5" stroke-width="1.14583" stroke-linejoin="round" stroke-miterlimit="10" stroke-opacity="0.74902" fill="#5B9BD5" fill-opacity="0.25098"/><path d="M2072.22 553.125C2072.22 559.2 2067.29 564.124 2061.22 564.124 2055.14 564.124 2050.22 559.2 2050.22 553.125 2050.22 547.05 2055.14 542.125 2061.22 542.125 2067.29 542.125 2072.22 547.05 2072.22 553.125Z" stroke="#5B9BD5" stroke-width="1.14583" stroke-linejoin="round" stroke-miterlimit="10" stroke-opacity="0.74902" fill="#5B9BD5" fill-opacity="0.25098"/><path d="M2082.22 630.125C2082.22 636.2 2077.29 641.124 2071.22 641.124 2065.14 641.124 2060.22 636.2 2060.22 630.125 2060.22 624.05 2065.14 619.125 2071.22 619.125 2077.29 619.125 2082.22 624.05 2082.22 630.125Z" stroke="#5B9BD5" stroke-width="1.14583" stroke-linejoin="round" stroke-miterlimit="10" stroke-opacity="0.74902" fill="#5B9BD5" fill-opacity="0.25098"/><path d="M2096.22 569.125C2096.22 575.2 2091.29 580.124 2085.22 580.124 2079.14 580.124 2074.22 575.2 2074.22 569.125 2074.22 563.05 2079.14 558.125 2085.22 558.125 2091.29 558.125 2096.22 563.05 2096.22 569.125Z" stroke="#5B9BD5" stroke-width="1.14583" stroke-linejoin="round" stroke-miterlimit="10" stroke-opacity="0.74902" fill="#5B9BD5" fill-opacity="0.25098"/><path d="M2119.22 645.125C2119.22 651.2 2114.29 656.124 2108.22 656.124 2102.14 656.124 2097.22 651.2 2097.22 645.125 2097.22 639.05 2102.14 634.125 2108.22 634.125 2114.29 634.125 2119.22 639.05 2119.22 645.125Z" stroke="#5B9BD5" stroke-width="1.14583" stroke-linejoin="round" stroke-miterlimit="10" stroke-opacity="0.74902" fill="#5B9BD5" fill-opacity="0.25098"/><path d="M2125.22 551.125C2125.22 557.199 2120.29 562.124 2114.22 562.124 2108.14 562.124 2103.22 557.199 2103.22 551.125 2103.22 545.05 2108.14 540.125 2114.22 540.125 2120.29 540.125 2125.22 545.05 2125.22 551.125Z" stroke="#5B9BD5" stroke-width="1.14583" stroke-linejoin="round" stroke-miterlimit="10" stroke-opacity="0.74902" fill="#5B9BD5" fill-opacity="0.25098"/><path d="M2130.22 443.125C2130.22 449.2 2125.29 454.124 2119.22 454.124 2113.14 454.124 2108.22 449.2 2108.22 443.125 2108.22 437.05 2113.14 432.125 2119.22 432.125 2125.29 432.125 2130.22 437.05 2130.22 443.125Z" stroke="#5B9BD5" stroke-width="1.14583" stroke-linejoin="round" stroke-miterlimit="10" stroke-opacity="0.74902" fill="#5B9BD5" fill-opacity="0.25098"/><path d="M2149.22 566.125C2149.22 572.2 2144.29 577.124 2138.22 577.124 2132.14 577.124 2127.22 572.2 2127.22 566.125 2127.22 560.05 2132.14 555.125 2138.22 555.125 2144.29 555.125 2149.22 560.05 2149.22 566.125Z" stroke="#5B9BD5" stroke-width="1.14583" stroke-linejoin="round" stroke-miterlimit="10" stroke-opacity="0.74902" fill="#5B9BD5" fill-opacity="0.25098"/><path d="M2162.22 566.125C2162.22 572.2 2157.29 577.124 2151.22 577.124 2145.14 577.124 2140.22 572.2 2140.22 566.125 2140.22 560.05 2145.14 555.125 2151.22 555.125 2157.29 555.125 2162.22 560.05 2162.22 566.125Z" stroke="#5B9BD5" stroke-width="1.14583" stroke-linejoin="round" stroke-miterlimit="10" stroke-opacity="0.74902" fill="#5B9BD5" fill-opacity="0.25098"/><path d="M2165.22 529.125C2165.22 535.199 2160.29 540.124 2154.22 540.124 2148.14 540.124 2143.22 535.199 2143.22 529.125 2143.22 523.05 2148.14 518.125 2154.22 518.125 2160.29 518.125 2165.22 523.05 2165.22 529.125Z" stroke="#5B9BD5" stroke-width="1.14583" stroke-linejoin="round" stroke-miterlimit="10" stroke-opacity="0.74902" fill="#5B9BD5" fill-opacity="0.25098"/><path d="M2168.22 628.125C2168.22 634.199 2163.29 639.124 2157.22 639.124 2151.14 639.124 2146.22 634.199 2146.22 628.125 2146.22 622.05 2151.14 617.125 2157.22 617.125 2163.29 617.125 2168.22 622.05 2168.22 628.125Z" stroke="#5B9BD5" stroke-width="1.14583" stroke-linejoin="round" stroke-miterlimit="10" stroke-opacity="0.74902" fill="#5B9BD5" fill-opacity="0.25098"/><path d="M2173.22 570.125C2173.22 576.2 2168.29 581.124 2162.22 581.124 2156.14 581.124 2151.22 576.2 2151.22 570.125 2151.22 564.05 2156.14 559.125 2162.22 559.125 2168.29 559.125 2173.22 564.05 2173.22 570.125Z" stroke="#5B9BD5" stroke-width="1.14583" stroke-linejoin="round" stroke-miterlimit="10" stroke-opacity="0.74902" fill="#5B9BD5" fill-opacity="0.25098"/><path d="M2182.22 393.125C2182.22 399.2 2177.29 404.124 2171.22 404.124 2165.14 404.124 2160.22 399.2 2160.22 393.125 2160.22 387.05 2165.14 382.125 2171.22 382.125 2177.29 382.125 2182.22 387.05 2182.22 393.125Z" stroke="#5B9BD5" stroke-width="1.14583" stroke-linejoin="round" stroke-miterlimit="10" stroke-opacity="0.74902" fill="#5B9BD5" fill-opacity="0.25098"/><path d="M2182.22 432.125C2182.22 438.2 2177.29 443.124 2171.22 443.124 2165.14 443.124 2160.22 438.2 2160.22 432.125 2160.22 426.05 2165.14 421.125 2171.22 421.125 2177.29 421.125 2182.22 426.05 2182.22 432.125Z" stroke="#5B9BD5" stroke-width="1.14583" stroke-linejoin="round" stroke-miterlimit="10" stroke-opacity="0.74902" fill="#5B9BD5" fill-opacity="0.25098"/><path d="M2189.22 556.125C2189.22 562.2 2184.29 567.124 2178.22 567.124 2172.14 567.124 2167.22 562.2 2167.22 556.125 2167.22 550.05 2172.14 545.125 2178.22 545.125 2184.29 545.125 2189.22 550.05 2189.22 556.125Z" stroke="#5B9BD5" stroke-width="1.14583" stroke-linejoin="round" stroke-miterlimit="10" stroke-opacity="0.74902" fill="#5B9BD5" fill-opacity="0.25098"/><path d="M2190.22 529.125C2190.22 535.199 2185.29 540.124 2179.22 540.124 2173.14 540.124 2168.22 535.199 2168.22 529.125 2168.22 523.05 2173.14 518.125 2179.22 518.125 2185.29 518.125 2190.22 523.05 2190.22 529.125Z" stroke="#5B9BD5" stroke-width="1.14583" stroke-linejoin="round" stroke-miterlimit="10" stroke-opacity="0.74902" fill="#5B9BD5" fill-opacity="0.25098"/><path d="M2191.22 478.125C2191.22 484.2 2186.29 489.124 2180.22 489.124 2174.14 489.124 2169.22 484.2 2169.22 478.125 2169.22 472.05 2174.14 467.125 2180.22 467.125 2186.29 467.125 2191.22 472.05 2191.22 478.125Z" stroke="#5B9BD5" stroke-width="1.14583" stroke-linejoin="round" stroke-miterlimit="10" stroke-opacity="0.74902" fill="#5B9BD5" fill-opacity="0.25098"/><path d="M2201.22 450.125C2201.22 456.2 2196.29 461.124 2190.22 461.124 2184.14 461.124 2179.22 456.2 2179.22 450.125 2179.22 444.05 2184.14 439.125 2190.22 439.125 2196.29 439.125 2201.22 444.05 2201.22 450.125Z" stroke="#5B9BD5" stroke-width="1.14583" stroke-linejoin="round" stroke-miterlimit="10" stroke-opacity="0.74902" fill="#5B9BD5" fill-opacity="0.25098"/><path d="M2204.22 504.125C2204.22 510.2 2199.29 515.124 2193.22 515.124 2187.14 515.124 2182.22 510.2 2182.22 504.125 2182.22 498.05 2187.14 493.125 2193.22 493.125 2199.29 493.125 2204.22 498.05 2204.22 504.125Z" stroke="#5B9BD5" stroke-width="1.14583" stroke-linejoin="round" stroke-miterlimit="10" stroke-opacity="0.74902" fill="#5B9BD5" fill-opacity="0.25098"/><path d="M2210.22 553.125C2210.22 559.2 2205.29 564.124 2199.22 564.124 2193.14 564.124 2188.22 559.2 2188.22 553.125 2188.22 547.05 2193.14 542.125 2199.22 542.125 2205.29 542.125 2210.22 547.05 2210.22 553.125Z" stroke="#5B9BD5" stroke-width="1.14583" stroke-linejoin="round" stroke-miterlimit="10" stroke-opacity="0.74902" fill="#5B9BD5" fill-opacity="0.25098"/><path d="M2217.22 460.125C2217.22 466.2 2212.29 471.124 2206.22 471.124 2200.14 471.124 2195.22 466.2 2195.22 460.125 2195.22 454.05 2200.14 449.125 2206.22 449.125 2212.29 449.125 2217.22 454.05 2217.22 460.125Z" stroke="#5B9BD5" stroke-width="1.14583" stroke-linejoin="round" stroke-miterlimit="10" stroke-opacity="0.74902" fill="#5B9BD5" fill-opacity="0.25098"/><path d="M2225.22 508.125C2225.22 514.199 2220.29 519.124 2214.22 519.124 2208.14 519.124 2203.22 514.199 2203.22 508.125 2203.22 502.05 2208.14 497.125 2214.22 497.125 2220.29 497.125 2225.22 502.05 2225.22 508.125Z" stroke="#5B9BD5" stroke-width="1.14583" stroke-linejoin="round" stroke-miterlimit="10" stroke-opacity="0.74902" fill="#5B9BD5" fill-opacity="0.25098"/><path d="M2226.22 508.125C2226.22 514.199 2221.29 519.124 2215.22 519.124 2209.14 519.124 2204.22 514.199 2204.22 508.125 2204.22 502.05 2209.14 497.125 2215.22 497.125 2221.29 497.125 2226.22 502.05 2226.22 508.125Z" stroke="#5B9BD5" stroke-width="1.14583" stroke-linejoin="round" stroke-miterlimit="10" stroke-opacity="0.74902" fill="#5B9BD5" fill-opacity="0.25098"/><path d="M2270.22 421.125C2270.22 427.2 2265.29 432.124 2259.22 432.124 2253.14 432.124 2248.22 427.2 2248.22 421.125 2248.22 415.05 2253.14 410.125 2259.22 410.125 2265.29 410.125 2270.22 415.05 2270.22 421.125Z" stroke="#5B9BD5" stroke-width="1.14583" stroke-linejoin="round" stroke-miterlimit="10" stroke-opacity="0.74902" fill="#5B9BD5" fill-opacity="0.25098"/><path d="M2271.22 566.125C2271.22 572.2 2266.29 577.124 2260.22 577.124 2254.14 577.124 2249.22 572.2 2249.22 566.125 2249.22 560.05 2254.14 555.125 2260.22 555.125 2266.29 555.125 2271.22 560.05 2271.22 566.125Z" stroke="#5B9BD5" stroke-width="1.14583" stroke-linejoin="round" stroke-miterlimit="10" stroke-opacity="0.74902" fill="#5B9BD5" fill-opacity="0.25098"/><path d="M2275.22 411.125C2275.22 417.2 2270.29 422.124 2264.22 422.124 2258.14 422.124 2253.22 417.2 2253.22 411.125 2253.22 405.05 2258.14 400.125 2264.22 400.125 2270.29 400.125 2275.22 405.05 2275.22 411.125Z" stroke="#5B9BD5" stroke-width="1.14583" stroke-linejoin="round" stroke-miterlimit="10" stroke-opacity="0.74902" fill="#5B9BD5" fill-opacity="0.25098"/><path d="M2286.22 441.125C2286.22 447.199 2281.29 452.124 2275.22 452.124 2269.14 452.124 2264.22 447.199 2264.22 441.125 2264.22 435.05 2269.14 430.125 2275.22 430.125 2281.29 430.125 2286.22 435.05 2286.22 441.125Z" stroke="#5B9BD5" stroke-width="1.14583" stroke-linejoin="round" stroke-miterlimit="10" stroke-opacity="0.74902" fill="#5B9BD5" fill-opacity="0.25098"/><path d="M2289.22 494.125C2289.22 500.2 2284.29 505.124 2278.22 505.124 2272.14 505.124 2267.22 500.2 2267.22 494.125 2267.22 488.05 2272.14 483.125 2278.22 483.125 2284.29 483.125 2289.22 488.05 2289.22 494.125Z" stroke="#5B9BD5" stroke-width="1.14583" stroke-linejoin="round" stroke-miterlimit="10" stroke-opacity="0.74902" fill="#5B9BD5" fill-opacity="0.25098"/><path d="M2293.22 483.125C2293.22 489.2 2288.29 494.124 2282.22 494.124 2276.14 494.124 2271.22 489.2 2271.22 483.125 2271.22 477.05 2276.14 472.125 2282.22 472.125 2288.29 472.125 2293.22 477.05 2293.22 483.125Z" stroke="#5B9BD5" stroke-width="1.14583" stroke-linejoin="round" stroke-miterlimit="10" stroke-opacity="0.74902" fill="#5B9BD5" fill-opacity="0.25098"/><path d="M2316.22 438.125C2316.22 444.2 2311.29 449.124 2305.22 449.124 2299.14 449.124 2294.22 444.2 2294.22 438.125 2294.22 432.05 2299.14 427.125 2305.22 427.125 2311.29 427.125 2316.22 432.05 2316.22 438.125Z" stroke="#5B9BD5" stroke-width="1.14583" stroke-linejoin="round" stroke-miterlimit="10" stroke-opacity="0.74902" fill="#5B9BD5" fill-opacity="0.25098"/><path d="M2327.22 484.125C2327.22 490.2 2322.29 495.125 2316.22 495.125 2310.14 495.125 2305.22 490.2 2305.22 484.125 2305.22 478.05 2310.14 473.125 2316.22 473.125 2322.29 473.125 2327.22 478.05 2327.22 484.125Z" stroke="#5B9BD5" stroke-width="1.14583" stroke-linejoin="round" stroke-miterlimit="10" stroke-opacity="0.74902" fill="#5B9BD5" fill-opacity="0.25098"/><path d="M2331.22 460.125C2331.22 466.2 2326.29 471.124 2320.22 471.124 2314.14 471.124 2309.22 466.2 2309.22 460.125 2309.22 454.05 2314.14 449.125 2320.22 449.125 2326.29 449.125 2331.22 454.05 2331.22 460.125Z" stroke="#5B9BD5" stroke-width="1.14583" stroke-linejoin="round" stroke-miterlimit="10" stroke-opacity="0.74902" fill="#5B9BD5" fill-opacity="0.25098"/><path d="M2332.22 447.125C2332.22 453.2 2327.29 458.124 2321.22 458.124 2315.14 458.124 2310.22 453.2 2310.22 447.125 2310.22 441.05 2315.14 436.125 2321.22 436.125 2327.29 436.125 2332.22 441.05 2332.22 447.125Z" stroke="#5B9BD5" stroke-width="1.14583" stroke-linejoin="round" stroke-miterlimit="10" stroke-opacity="0.74902" fill="#5B9BD5" fill-opacity="0.25098"/><path d="M2377.22 486.125C2377.22 492.199 2372.29 497.124 2366.22 497.124 2360.14 497.124 2355.22 492.199 2355.22 486.125 2355.22 480.05 2360.14 475.125 2366.22 475.125 2372.29 475.125 2377.22 480.05 2377.22 486.125Z" stroke="#5B9BD5" stroke-width="1.14583" stroke-linejoin="round" stroke-miterlimit="10" stroke-opacity="0.74902" fill="#5B9BD5" fill-opacity="0.25098"/><path d="M2404.22 604.125C2404.22 610.2 2399.29 615.124 2393.22 615.124 2387.14 615.124 2382.22 610.2 2382.22 604.125 2382.22 598.05 2387.14 593.125 2393.22 593.125 2399.29 593.125 2404.22 598.05 2404.22 604.125Z" stroke="#5B9BD5" stroke-width="1.14583" stroke-linejoin="round" stroke-miterlimit="10" stroke-opacity="0.74902" fill="#5B9BD5" fill-opacity="0.25098"/><path d="M2424.22 398.125C2424.22 404.199 2419.29 409.124 2413.22 409.124 2407.14 409.124 2402.22 404.199 2402.22 398.125 2402.22 392.05 2407.14 387.125 2413.22 387.125 2419.29 387.125 2424.22 392.05 2424.22 398.125Z" stroke="#5B9BD5" stroke-width="1.14583" stroke-linejoin="round" stroke-miterlimit="10" stroke-opacity="0.74902" fill="#5B9BD5" fill-opacity="0.25098"/><path d="M2428.22 564.125C2428.22 570.2 2423.29 575.124 2417.22 575.124 2411.14 575.124 2406.22 570.2 2406.22 564.125 2406.22 558.05 2411.14 553.125 2417.22 553.125 2423.29 553.125 2428.22 558.05 2428.22 564.125Z" stroke="#5B9BD5" stroke-width="1.14583" stroke-linejoin="round" stroke-miterlimit="10" stroke-opacity="0.74902" fill="#5B9BD5" fill-opacity="0.25098"/><path d="M2434.22 555.125C2434.22 561.2 2429.29 566.124 2423.22 566.124 2417.14 566.124 2412.22 561.2 2412.22 555.125 2412.22 549.05 2417.14 544.125 2423.22 544.125 2429.29 544.125 2434.22 549.05 2434.22 555.125Z" stroke="#5B9BD5" stroke-width="1.14583" stroke-linejoin="round" stroke-miterlimit="10" stroke-opacity="0.74902" fill="#5B9BD5" fill-opacity="0.25098"/><path d="M2480.22 534.125C2480.22 540.2 2475.29 545.124 2469.22 545.124 2463.14 545.124 2458.22 540.2 2458.22 534.125 2458.22 528.05 2463.14 523.125 2469.22 523.125 2475.29 523.125 2480.22 528.05 2480.22 534.125Z" stroke="#5B9BD5" stroke-width="1.14583" stroke-linejoin="round" stroke-miterlimit="10" stroke-opacity="0.74902" fill="#5B9BD5" fill-opacity="0.25098"/><path d="M2513.22 498.125C2513.22 504.2 2508.29 509.124 2502.22 509.124 2496.14 509.124 2491.22 504.2 2491.22 498.125 2491.22 492.05 2496.14 487.125 2502.22 487.125 2508.29 487.125 2513.22 492.05 2513.22 498.125Z" stroke="#5B9BD5" stroke-width="1.14583" stroke-linejoin="round" stroke-miterlimit="10" stroke-opacity="0.74902" fill="#5B9BD5" fill-opacity="0.25098"/><path d="M2538.22 464.125C2538.22 470.199 2533.29 475.124 2527.22 475.124 2521.14 475.124 2516.22 470.199 2516.22 464.125 2516.22 458.05 2521.14 453.125 2527.22 453.125 2533.29 453.125 2538.22 458.05 2538.22 464.125Z" stroke="#5B9BD5" stroke-width="1.14583" stroke-linejoin="round" stroke-miterlimit="10" stroke-opacity="0.74902" fill="#5B9BD5" fill-opacity="0.25098"/><path d="M2542.22 455.125C2542.22 461.2 2537.29 466.124 2531.22 466.124 2525.14 466.124 2520.22 461.2 2520.22 455.125 2520.22 449.05 2525.14 444.125 2531.22 444.125 2537.29 444.125 2542.22 449.05 2542.22 455.125Z" stroke="#5B9BD5" stroke-width="1.14583" stroke-linejoin="round" stroke-miterlimit="10" stroke-opacity="0.74902" fill="#5B9BD5" fill-opacity="0.25098"/><path d="M2542.22 437.125C2542.22 443.2 2537.29 448.124 2531.22 448.124 2525.14 448.124 2520.22 443.2 2520.22 437.125 2520.22 431.05 2525.14 426.125 2531.22 426.125 2537.29 426.125 2542.22 431.05 2542.22 437.125Z" stroke="#5B9BD5" stroke-width="1.14583" stroke-linejoin="round" stroke-miterlimit="10" stroke-opacity="0.74902" fill="#5B9BD5" fill-opacity="0.25098"/><path d="M2543.22 525.125C2543.22 531.2 2538.29 536.124 2532.22 536.124 2526.14 536.124 2521.22 531.2 2521.22 525.125 2521.22 519.05 2526.14 514.125 2532.22 514.125 2538.29 514.125 2543.22 519.05 2543.22 525.125Z" stroke="#5B9BD5" stroke-width="1.14583" stroke-linejoin="round" stroke-miterlimit="10" stroke-opacity="0.74902" fill="#5B9BD5" fill-opacity="0.25098"/><path d="M2602.22 522.125C2602.22 528.2 2597.29 533.124 2591.22 533.124 2585.14 533.124 2580.22 528.2 2580.22 522.125 2580.22 516.05 2585.14 511.125 2591.22 511.125 2597.29 511.125 2602.22 516.05 2602.22 522.125Z" stroke="#5B9BD5" stroke-width="1.14583" stroke-linejoin="round" stroke-miterlimit="10" stroke-opacity="0.74902" fill="#5B9BD5" fill-opacity="0.25098"/></g><g clip-path="url(#clip8)"><text fill="#595959" font-family="Calibri,Calibri_MSFontService,sans-serif" font-weight="400" font-size="41" transform="matrix(1 0 0 1 1457.89 997)">0</text></g><g clip-path="url(#clip9)"><text fill="#595959" font-family="Calibri,Calibri_MSFontService,sans-serif" font-weight="400" font-size="41" transform="matrix(1 0 0 1 1426.7 883)">0,5</text></g><g clip-path="url(#clip10)"><text fill="#595959" font-family="Calibri,Calibri_MSFontService,sans-serif" font-weight="400" font-size="41" transform="matrix(1 0 0 1 1457.89 769)">1</text></g><g clip-path="url(#clip11)"><text fill="#595959" font-family="Calibri,Calibri_MSFontService,sans-serif" font-weight="400" font-size="41" transform="matrix(1 0 0 1 1426.7 655)">1,5</text></g><g clip-path="url(#clip12)"><text fill="#595959" font-family="Calibri,Calibri_MSFontService,sans-serif" font-weight="400" font-size="41" transform="matrix(1 0 0 1 1457.89 541)">2</text></g><g clip-path="url(#clip13)"><text fill="#595959" font-family="Calibri,Calibri_MSFontService,sans-serif" font-weight="400" font-size="41" transform="matrix(1 0 0 1 1426.7 426)">2,5</text></g><g clip-path="url(#clip14)"><text fill="#595959" font-family="Calibri,Calibri_MSFontService,sans-serif" font-weight="400" font-size="41" transform="matrix(1 0 0 1 1457.89 312)">3</text></g><g clip-path="url(#clip15)"><text fill="#595959" font-family="Calibri,Calibri_MSFontService,sans-serif" font-weight="400" font-size="41" transform="matrix(1 0 0 1 1491.01 1051)">4,0</text></g><g clip-path="url(#clip16)"><text fill="#595959" font-family="Calibri,Calibri_MSFontService,sans-serif" font-weight="400" font-size="41" transform="matrix(1 0 0 1 1764 1051)">5,0</text></g><g clip-path="url(#clip17)"><text fill="#595959" font-family="Calibri,Calibri_MSFontService,sans-serif" font-weight="400" font-size="41" transform="matrix(1 0 0 1 2036.98 1051)">6,0</text></g><g clip-path="url(#clip18)"><text fill="#595959" font-family="Calibri,Calibri_MSFontService,sans-serif" font-weight="400" font-size="41" transform="matrix(1 0 0 1 2309.97 1051)">7,0</text></g><g clip-path="url(#clip19)"><text fill="#595959" font-family="Calibri,Calibri_MSFontService,sans-serif" font-weight="400" font-size="41" transform="matrix(1 0 0 1 2582.95 1051)">8,0</text></g><g clip-path="url(#clip20)"><text fill="#595959" font-family="Calibri,Calibri_MSFontService,sans-serif" font-weight="400" font-size="46" transform="matrix(6.12323e-17 -1 1 6.12323e-17 1401.01 754)">Petal.Width</text></g><g clip-path="url(#clip21)"><text fill="#595959" font-family="Calibri,Calibri_MSFontService,sans-serif" font-weight="400" font-size="46" transform="matrix(1 0 0 1 1942.22 1120)">Sepal</text></g><g clip-path="url(#clip22)"><text fill="#595959" font-family="Calibri,Calibri_MSFontService,sans-serif" font-weight="400" font-size="46" transform="matrix(1 0 0 1 2042.64 1120)">-</text></g><g clip-path="url(#clip23)"><text fill="#595959" font-family="Calibri,Calibri_MSFontService,sans-serif" font-weight="400" font-size="46" transform="matrix(1 0 0 1 2056.67 1120)">Length</text></g><g clip-path="url(#clip24)"><text font-family="Calibri,Calibri_MSFontService,sans-serif" font-weight="400" font-size="64" transform="matrix(1 0 0 1 1878.8 226)">Grfico XY en Excel</text></g><g clip-path="url(#clip25)"><path d="M2729 642C2729 648.075 2724.07 652.999 2718 652.999 2711.92 652.999 2707 648.075 2707 642 2707 635.925 2711.92 631 2718 631 2724.07 631 2729 635.925 2729 642Z" stroke="#C00000" stroke-width="1.14583" stroke-linejoin="round" stroke-miterlimit="10" stroke-opacity="0.74902" fill="#C00000" fill-opacity="0.25098"/></g><g clip-path="url(#clip26)"><text fill="#595959" font-family="Calibri,Calibri_MSFontService,sans-serif" font-weight="400" font-size="41" transform="matrix(1 0 0 1 2739.36 654)">setosa</text></g><g clip-path="url(#clip27)"><path d="M2729 719C2729 725.075 2724.07 729.999 2718 729.999 2711.92 729.999 2707 725.075 2707 719 2707 712.925 2711.92 708 2718 708 2724.07 708 2729 712.925 2729 719Z" stroke="#548235" stroke-width="1.14583" stroke-linejoin="round" stroke-miterlimit="10" stroke-opacity="0.74902" fill="#548235" fill-opacity="0.25098"/></g><g clip-path="url(#clip28)"><text fill="#595959" font-family="Calibri,Calibri_MSFontService,sans-serif" font-weight="400" font-size="41" transform="matrix(1 0 0 1 2739.36 731)">versicolor</text></g><g clip-path="url(#clip29)"><path d="M2729 797C2729 803.075 2724.07 807.999 2718 807.999 2711.92 807.999 2707 803.075 2707 797 2707 790.925 2711.92 786 2718 786 2724.07 786 2729 790.925 2729 797Z" stroke="#5B9BD5" stroke-width="1.14583" stroke-linejoin="round" stroke-miterlimit="10" stroke-opacity="0.74902" fill="#5B9BD5" fill-opacity="0.25098"/></g><g clip-path="url(#clip30)"><text fill="#595959" font-family="Calibri,Calibri_MSFontService,sans-serif" font-weight="400" font-size="41" transform="matrix(1 0 0 1 2739.36 809)">virginica</text></g><rect x="1300.5" y="131.5" width="1650" height="1058" stroke="#D9D9D9" stroke-width="3.4375" stroke-linejoin="round" stroke-miterlimit="10" fill="none"/><g clip-path="url(#clip31)"><text fill="#3B3838" font-family="Calibri,Calibri_MSFontService,sans-serif" font-weight="400" font-size="50" transform="matrix(1 0 0 1 2677.93 588)">Species</text></g></g></svg>