<svg width="1646" height="3293" xmlns="http://www.w3.org/2000/svg" xmlns:xlink="http://www.w3.org/1999/xlink" xml:space="preserve" overflow="hidden"><defs><clipPath id="clip0"><rect x="3232" y="1053" width="1646" height="3293"/></clipPath><clipPath id="clip1"><rect x="3234" y="1328" width="1642" height="996"/></clipPath><clipPath id="clip2"><rect x="3284" y="1498" width="1545" height="779"/></clipPath><clipPath id="clip3"><rect x="3284" y="1498" width="1545" height="779"/></clipPath><clipPath id="clip4"><rect x="3284" y="1498" width="1545" height="779"/></clipPath><clipPath id="clip5"><rect x="3284" y="1498" width="1545" height="779"/></clipPath><clipPath id="clip6"><rect x="3234" y="1328" width="1642" height="996"/></clipPath><clipPath id="clip7"><rect x="3234" y="1328" width="1643" height="997"/></clipPath><clipPath id="clip8"><rect x="3234" y="1328" width="1643" height="997"/></clipPath><clipPath id="clip9"><rect x="3234" y="1328" width="1643" height="997"/></clipPath><clipPath id="clip10"><rect x="3234" y="1328" width="1643" height="997"/></clipPath><clipPath id="clip11"><rect x="3234" y="1328" width="1643" height="997"/></clipPath><clipPath id="clip12"><rect x="3234" y="1328" width="1643" height="997"/></clipPath><clipPath id="clip13"><rect x="3234" y="1328" width="1643" height="997"/></clipPath><clipPath id="clip14"><rect x="3234" y="1328" width="1643" height="997"/></clipPath><clipPath id="clip15"><rect x="3234" y="1328" width="1643" height="997"/></clipPath><clipPath id="clip16"><rect x="3234" y="2324" width="1642" height="1012"/></clipPath><clipPath id="clip17"><rect x="3284" y="2494" width="1545" height="795"/></clipPath><clipPath id="clip18"><rect x="3284" y="2494" width="1545" height="795"/></clipPath><clipPath id="clip19"><rect x="3284" y="2494" width="1545" height="795"/></clipPath><clipPath id="clip20"><rect x="3284" y="2494" width="1545" height="795"/></clipPath><clipPath id="clip21"><rect x="3234" y="2324" width="1642" height="1012"/></clipPath><clipPath id="clip22"><rect x="3234" y="2324" width="1643" height="1013"/></clipPath><clipPath id="clip23"><rect x="3234" y="2324" width="1643" height="1013"/></clipPath><clipPath id="clip24"><rect x="3234" y="2324" width="1643" height="1013"/></clipPath><clipPath id="clip25"><rect x="3234" y="2324" width="1643" height="1013"/></clipPath><clipPath id="clip26"><rect x="3234" y="2324" width="1643" height="1013"/></clipPath><clipPath id="clip27"><rect x="3234" y="2324" width="1643" height="1013"/></clipPath><clipPath id="clip28"><rect x="3234" y="2324" width="1643" height="1013"/></clipPath><clipPath id="clip29"><rect x="3234" y="2324" width="1643" height="1013"/></clipPath><clipPath id="clip30"><rect x="3234" y="2324" width="1643" height="1013"/></clipPath><clipPath id="clip31"><rect x="3234" y="2324" width="1643" height="1013"/></clipPath><clipPath id="clip32"><rect x="3233" y="3336" width="1641" height="1007"/></clipPath><clipPath id="clip33"><rect x="3283" y="3506" width="1544" height="790"/></clipPath><clipPath id="clip34"><rect x="3283" y="3506" width="1544" height="790"/></clipPath><clipPath id="clip35"><rect x="3283" y="3506" width="1544" height="790"/></clipPath><clipPath id="clip36"><rect x="3283" y="3506" width="1544" height="790"/></clipPath><clipPath id="clip37"><rect x="3233" y="3336" width="1641" height="1007"/></clipPath><clipPath id="clip38"><rect x="3233" y="3336" width="1642" height="1008"/></clipPath><clipPath id="clip39"><rect x="3233" y="3336" width="1642" height="1008"/></clipPath><clipPath id="clip40"><rect x="3233" y="3336" width="1642" height="1008"/></clipPath><clipPath id="clip41"><rect x="3233" y="3336" width="1642" height="1008"/></clipPath><clipPath id="clip42"><rect x="3233" y="3336" width="1642" height="1008"/></clipPath><clipPath id="clip43"><rect x="3233" y="3336" width="1642" height="1008"/></clipPath><clipPath id="clip44"><rect x="3233" y="3336" width="1642" height="1008"/></clipPath><clipPath id="clip45"><rect x="3233" y="3336" width="1642" height="1008"/></clipPath><clipPath id="clip46"><rect x="3233" y="3336" width="1642" height="1008"/></clipPath><clipPath id="clip47"><rect x="3233" y="3336" width="1642" height="1008"/></clipPath><clipPath id="clip48"><rect x="3233" y="3336" width="1642" height="1008"/></clipPath><clipPath id="clip49"><rect x="3233" y="3336" width="1642" height="1008"/></clipPath><clipPath id="clip50"><rect x="3233" y="1054" width="1642" height="276"/></clipPath><clipPath id="clip51"><rect x="3233" y="1054" width="1642" height="276"/></clipPath><clipPath id="clip52"><rect x="3233" y="1054" width="1642" height="276"/></clipPath></defs><g clip-path="url(#clip0)" transform="translate(-3232 -1053)"><rect x="3235" y="1329" width="1641" height="996" fill="#DAE3F3" fill-opacity="0.501961"/><g clip-path="url(#clip1)"><path d="M3284.5 2274.5 4825.5 2274.5M3284.5 2145.57 4825.5 2145.57M3284.5 2015.57 4825.5 2015.57M3284.5 1886.56 4825.5 1886.56M3284.5 1757.56 4825.5 1757.56M3284.5 1627.55 4825.5 1627.55M3284.5 1498.5 4825.5 1498.5" stroke="#D9D9D9" stroke-width="3.4375" stroke-linejoin="round" stroke-miterlimit="10" fill="none"/></g><g clip-path="url(#clip2)"><path d="M3661.5 2274.5C3671.49 2274.37 3681.48 2274.32 3691.47 2274.1 3701.46 2273.87 3711.45 2273.65 3721.44 2273.13 3731.43 2272.62 3741.42 2272.09 3751.41 2271 3761.4 2269.9 3771.39 2268.73 3781.38 2266.56 3791.36 2264.38 3801.35 2261.98 3811.34 2257.94 3821.33 2253.91 3831.32 2249.33 3841.31 2242.35 3851.3 2235.38 3861.29 2227.32 3871.28 2216.09 3881.27 2204.86 3891.26 2191.77 3901.25 2174.97 3911.24 2158.17 3921.23 2138.57 3931.22 2115.31 3941.21 2092.04 3951.2 2065.08 3961.19 2035.4 3971.18 2005.72 3981.17 1971.85 3991.16 1937.21 4001.15 1902.58 4011.14 1864.08 4021.12 1827.58 4031.11 1791.09 4041.1 1752.15 4051.09 1718.24 4061.08 1684.33 4071.07 1650.47 4081.06 1624.13 4091.05 1597.79 4101.04 1574.62 4111.03 1560.18 4121.02 1545.74 4131.01 1537.5 4141 1537.5 4150.99 1537.5 4160.98 1545.74 4170.97 1560.18 4180.96 1574.62 4190.95 1597.79 4200.94 1624.13 4210.93 1650.47 4220.92 1684.33 4230.91 1718.24 4240.9 1752.15 4250.89 1791.09 4260.88 1827.58 4270.86 1864.08 4280.85 1902.58 4290.84 1937.21 4300.83 1971.85 4310.82 2005.72 4320.81 2035.4 4330.8 2065.08 4340.79 2092.04 4350.78 2115.31 4360.77 2138.57 4370.76 2158.17 4380.75 2174.97 4390.74 2191.77 4400.73 2204.86 4410.72 2216.09 4420.71 2227.32 4430.7 2235.38 4440.69 2242.35 4450.68 2249.33 4460.67 2253.91 4470.66 2257.94 4480.65 2261.98 4490.64 2264.38 4500.63 2266.56 4510.61 2268.73 4520.6 2269.9 4530.59 2271 4540.58 2272.09 4550.57 2272.62 4560.56 2273.13 4570.55 2273.65 4580.54 2273.87 4590.53 2274.1 4600.52 2274.32 4610.51 2274.37 4620.5 2274.5" stroke="#A5A5A5" stroke-width="6.875" stroke-linecap="round" stroke-linejoin="round" stroke-miterlimit="10" fill="none"/></g><g clip-path="url(#clip3)"><path d="M3713.5 2274.5C3723.48 2274.37 3733.46 2274.32 3743.44 2274.1 3753.42 2273.87 3763.4 2273.65 3773.37 2273.13 3783.35 2272.62 3793.33 2272.09 3803.31 2271 3813.29 2269.9 3823.27 2268.73 3833.25 2266.56 3843.23 2264.38 3853.21 2261.98 3863.19 2257.94 3873.17 2253.91 3883.15 2249.33 3893.12 2242.35 3903.1 2235.38 3913.08 2227.32 3923.06 2216.09 3933.04 2204.86 3943.02 2191.77 3953 2174.97 3962.98 2158.17 3972.96 2138.57 3982.94 2115.31 3992.92 2092.04 4002.9 2065.08 4012.88 2035.4 4022.85 2005.72 4032.83 1971.85 4042.81 1937.21 4052.79 1902.58 4062.77 1864.08 4072.75 1827.58 4082.73 1791.09 4092.71 1752.15 4102.69 1718.24 4112.67 1684.33 4122.65 1650.47 4132.62 1624.13 4142.6 1597.79 4152.58 1574.62 4162.56 1560.18 4172.54 1545.74 4182.52 1537.5 4192.5 1537.5 4202.48 1537.5 4212.46 1545.74 4222.44 1560.18 4232.42 1574.62 4242.4 1597.79 4252.38 1624.13 4262.35 1650.47 4272.33 1684.33 4282.31 1718.24 4292.29 1752.15 4302.27 1791.09 4312.25 1827.58 4322.23 1864.08 4332.21 1902.58 4342.19 1937.21 4352.17 1971.85 4362.15 2005.72 4372.12 2035.4 4382.1 2065.08 4392.08 2092.04 4402.06 2115.31 4412.04 2138.57 4422.02 2158.17 4432 2174.97 4441.98 2191.77 4451.96 2204.86 4461.94 2216.09 4471.92 2227.32 4481.9 2235.38 4491.88 2242.35 4501.85 2249.33 4511.83 2253.91 4521.81 2257.94 4531.79 2261.98 4541.77 2264.38 4551.75 2266.56 4561.73 2268.73 4571.71 2269.9 4581.69 2271 4591.67 2272.09 4601.65 2272.62 4611.62 2273.13 4621.6 2273.65 4631.58 2273.87 4641.56 2274.1 4651.54 2274.32 4661.52 2274.37 4671.5 2274.5" stroke="#4472C4" stroke-width="6.875" stroke-linecap="round" stroke-linejoin="round" stroke-miterlimit="10" fill="none"/></g><g clip-path="url(#clip4)"><path d="M4192.5 2274.5C4192.5 2028.83 4192.5 1783.17 4192.5 1537.5" stroke="#4472C4" stroke-width="6.875" stroke-linecap="round" stroke-linejoin="round" stroke-miterlimit="10" stroke-dasharray="20.625 27.5" stroke-opacity="0.501961" fill="none"/></g><g clip-path="url(#clip5)"><path d="M4141.5 2274.5C4141.5 2028.83 4141.5 1783.17 4141.5 1537.5" stroke="#A5A5A5" stroke-width="6.875" stroke-linecap="round" stroke-linejoin="round" stroke-miterlimit="10" stroke-dasharray="20.625 27.5" stroke-opacity="0.501961" fill="none"/></g><g clip-path="url(#clip6)"><text fill="#595959" font-family="Calibri,Calibri_MSFontService,sans-serif" font-weight="400" font-size="64" transform="matrix(1 0 0 1 3281.02 1424)">Aumento de la media</text></g><rect x="3235.5" y="1329.5" width="1641" height="996" stroke="#D9D9D9" stroke-width="3.4375" stroke-linejoin="round" stroke-miterlimit="10" fill="none"/><g clip-path="url(#clip7)"><path d="M4131 1446.85 4176.84 1446.85 4176.84 1449.15 4131 1449.15ZM4172.26 1434.25 4199.76 1448 4172.26 1461.75Z" fill="#4472C4"/></g><g clip-path="url(#clip8)"><path d="M3774.11 2009.63 3797.74 2216.28" stroke="#4472C4" stroke-width="4.58333" stroke-miterlimit="8" fill="none" fill-rule="evenodd"/></g><g clip-path="url(#clip9)"><text fill="#4472C4" font-family="Calibri,Calibri_MSFontService,sans-serif" font-weight="400" font-size="50" transform="matrix(1 0 0 1 3669.7 1927)">Menos frío</text></g><g clip-path="url(#clip10)"><text fill="#4472C4" font-family="Calibri,Calibri_MSFontService,sans-serif" font-weight="400" font-size="50" transform="matrix(1 0 0 1 3669.7 1989)">extremo</text></g><g clip-path="url(#clip11)"><path d="M4520.96 2009.61 4510.09 2192.88" stroke="#C00000" stroke-width="4.58333" stroke-miterlimit="8" fill="none" fill-rule="evenodd"/></g><g clip-path="url(#clip12)"><text fill="#C00000" font-family="Calibri,Calibri_MSFontService,sans-serif" font-weight="400" font-size="50" transform="matrix(1 0 0 1 4440.53 1937)">Más calor </text></g><g clip-path="url(#clip13)"><text fill="#C00000" font-family="Calibri,Calibri_MSFontService,sans-serif" font-weight="400" font-size="50" transform="matrix(1 0 0 1 4440.53 1999)">extremo</text></g><g clip-path="url(#clip14)"><text fill="#525252" font-family="Calibri,Calibri_MSFontService,sans-serif" font-weight="400" font-size="50" transform="matrix(1 0 0 1 3303.29 2259)">Frío</text></g><g clip-path="url(#clip15)"><text fill="#525252" font-family="Calibri,Calibri_MSFontService,sans-serif" font-weight="400" font-size="50" transform="matrix(1 0 0 1 4691.78 2256)">Calor</text></g><rect x="3235" y="2325" width="1641" height="1012" fill="#DAE3F3" fill-opacity="0.501961"/><g clip-path="url(#clip16)"><path d="M3284.5 3286.5 4825.5 3286.5M3284.5 3154.6 4825.5 3154.6M3284.5 3022.6 4825.5 3022.6M3284.5 2890.59 4825.5 2890.59M3284.5 2758.59 4825.5 2758.59M3284.5 2626.59 4825.5 2626.59M3284.5 2494.5 4825.5 2494.5" stroke="#D9D9D9" stroke-width="3.4375" stroke-linejoin="round" stroke-miterlimit="10" fill="none"/></g><g clip-path="url(#clip17)"><path d="M3623.5 3286.5C3632.49 3286.36 3641.48 3286.32 3650.47 3286.09 3659.46 3285.86 3668.45 3285.63 3677.44 3285.11 3686.43 3284.58 3695.42 3284.04 3704.41 3282.93 3713.4 3281.81 3722.39 3280.62 3731.37 3278.4 3740.36 3276.18 3749.35 3273.72 3758.34 3269.61 3767.33 3265.49 3776.32 3260.82 3785.31 3253.7 3794.3 3246.58 3803.29 3238.36 3812.28 3226.9 3821.27 3215.44 3830.26 3202.09 3839.25 3184.95 3848.24 3167.81 3857.23 3147.8 3866.22 3124.07 3875.21 3100.33 3884.2 3072.82 3893.19 3042.53 3902.18 3012.25 3911.17 2977.69 3920.16 2942.35 3929.15 2907.01 3938.14 2867.73 3947.12 2830.49 3956.11 2793.25 3965.1 2753.52 3974.09 2718.92 3983.08 2684.32 3992.07 2649.77 4001.06 2622.89 4010.05 2596.01 4019.04 2572.38 4028.03 2557.64 4037.02 2542.91 4046.01 2534.5 4055 2534.5 4063.99 2534.5 4072.98 2542.91 4081.97 2557.64 4090.96 2572.38 4099.95 2596.01 4108.94 2622.89 4117.93 2649.77 4126.92 2684.32 4135.91 2718.92 4144.9 2753.52 4153.89 2793.25 4162.88 2830.49 4171.86 2867.73 4180.85 2907.01 4189.84 2942.35 4198.83 2977.69 4207.82 3012.25 4216.81 3042.53 4225.8 3072.82 4234.79 3100.33 4243.78 3124.07 4252.77 3147.8 4261.76 3167.81 4270.75 3184.95 4279.74 3202.09 4288.73 3215.44 4297.72 3226.9 4306.71 3238.36 4315.7 3246.58 4324.69 3253.7 4333.68 3260.82 4342.67 3265.49 4351.66 3269.61 4360.65 3273.72 4369.64 3276.18 4378.63 3278.4 4387.61 3280.62 4396.6 3281.81 4405.59 3282.93 4414.58 3284.04 4423.57 3284.58 4432.56 3285.11 4441.55 3285.63 4450.54 3285.86 4459.53 3286.09 4468.52 3286.32 4477.51 3286.36 4486.5 3286.5" stroke="#A5A5A5" stroke-width="6.875" stroke-linecap="round" stroke-linejoin="round" stroke-miterlimit="10" fill="none"/></g><g clip-path="url(#clip18)"><path d="M3500.5 3286.5C3512.06 3286.39 3523.62 3286.36 3535.19 3286.18 3546.75 3286 3558.31 3285.83 3569.88 3285.42 3581.44 3285.01 3593 3284.59 3604.56 3283.72 3616.13 3282.85 3627.69 3281.92 3639.25 3280.2 3650.81 3278.47 3662.38 3276.56 3673.94 3273.36 3685.5 3270.16 3697.06 3266.52 3708.62 3260.98 3720.19 3255.45 3731.75 3249.05 3743.31 3240.14 3754.88 3231.22 3766.44 3220.83 3778 3207.5 3789.56 3194.17 3801.12 3178.6 3812.69 3160.14 3824.25 3141.67 3835.81 3120.27 3847.38 3096.71 3858.94 3073.15 3870.5 3046.27 3882.06 3018.77 3893.62 2991.28 3905.19 2960.72 3916.75 2931.76 3928.31 2902.79 3939.88 2871.88 3951.44 2844.97 3963 2818.05 3974.56 2791.17 3986.12 2770.26 3997.69 2749.35 4009.25 2730.96 4020.81 2719.5 4032.38 2708.04 4043.94 2701.5 4055.5 2701.5 4067.06 2701.5 4078.62 2708.04 4090.19 2719.5 4101.75 2730.96 4113.31 2749.35 4124.88 2770.26 4136.44 2791.17 4148 2818.05 4159.56 2844.97 4171.12 2871.88 4182.69 2902.79 4194.25 2931.76 4205.81 2960.72 4217.38 2991.28 4228.94 3018.77 4240.5 3046.27 4252.06 3073.15 4263.62 3096.71 4275.19 3120.27 4286.75 3141.67 4298.31 3160.14 4309.87 3178.6 4321.44 3194.17 4333 3207.5 4344.56 3220.83 4356.12 3231.22 4367.69 3240.14 4379.25 3249.05 4390.81 3255.45 4402.38 3260.98 4413.94 3266.52 4425.5 3270.16 4437.06 3273.36 4448.62 3276.56 4460.19 3278.47 4471.75 3280.2 4483.31 3281.92 4494.88 3282.85 4506.44 3283.72 4518 3284.59 4529.56 3285.01 4541.12 3285.42 4552.69 3285.83 4564.25 3286 4575.81 3286.18 4587.37 3286.36 4598.94 3286.39 4610.5 3286.5" stroke="#4472C4" stroke-width="6.875" stroke-linecap="round" stroke-linejoin="round" stroke-miterlimit="10" fill="none"/></g><g clip-path="url(#clip19)"><path d="M4055.5 3286.5C4055.5 3091.5 4055.5 2896.5 4055.5 2701.5" stroke="#4472C4" stroke-width="6.875" stroke-linecap="round" stroke-linejoin="round" stroke-miterlimit="10" stroke-dasharray="20.625 27.5" stroke-opacity="0.501961" fill="none"/></g><g clip-path="url(#clip20)"><path d="M4055.5 3286.5C4055.5 3035.83 4055.5 2785.17 4055.5 2534.5" stroke="#A5A5A5" stroke-width="6.875" stroke-linecap="round" stroke-linejoin="round" stroke-miterlimit="10" stroke-dasharray="20.625 27.5" stroke-opacity="0.501961" fill="none"/></g><g clip-path="url(#clip21)"><text fill="#595959" font-family="Calibri,Calibri_MSFontService,sans-serif" font-weight="400" font-size="64" transform="matrix(1 0 0 1 3295.78 2420)">Aumento de la varianza</text></g><rect x="3235.5" y="2325.5" width="1641" height="1012" stroke="#D9D9D9" stroke-width="3.4375" stroke-linejoin="round" stroke-miterlimit="10" fill="none"/><g clip-path="url(#clip22)"><path d="M0.713564-0.896526 32.9684 24.7758 31.5412 26.5688-0.713564 0.896526ZM37.2315 12.0597 50.1853 39.9436 20.1059 33.5763Z" fill="#4472C4" transform="matrix(-1 0 0 1 3997.19 3065)"/></g><g clip-path="url(#clip23)"><path d="M4104.71 3064.1 4136.97 3089.78 4135.54 3091.57 4103.29 3065.9ZM4141.23 3077.06 4154.19 3104.94 4124.11 3098.58Z" fill="#4472C4"/></g><g clip-path="url(#clip24)"><path d="M3680.55 2994.39 3704.25 3204.94" stroke="#4472C4" stroke-width="4.58333" stroke-miterlimit="8" fill="none" fill-rule="evenodd"/></g><g clip-path="url(#clip25)"><text fill="#4472C4" font-family="Calibri,Calibri_MSFontService,sans-serif" font-weight="400" font-size="50" transform="matrix(1 0 0 1 3576.36 2910)">Más frío</text></g><g clip-path="url(#clip26)"><text fill="#4472C4" font-family="Calibri,Calibri_MSFontService,sans-serif" font-weight="400" font-size="50" transform="matrix(1 0 0 1 3576.36 2972)">extremo</text></g><g clip-path="url(#clip27)"><path d="M4427.32 2994.18 4416.41 3180.9" stroke="#C00000" stroke-width="4.58333" stroke-miterlimit="8" fill="none" fill-rule="evenodd"/></g><g clip-path="url(#clip28)"><text fill="#C00000" font-family="Calibri,Calibri_MSFontService,sans-serif" font-weight="400" font-size="50" transform="matrix(1 0 0 1 4347.2 2920)">Más calor </text></g><g clip-path="url(#clip29)"><text fill="#C00000" font-family="Calibri,Calibri_MSFontService,sans-serif" font-weight="400" font-size="50" transform="matrix(1 0 0 1 4347.2 2982)">extremo</text></g><g clip-path="url(#clip30)"><text fill="#525252" font-family="Calibri,Calibri_MSFontService,sans-serif" font-weight="400" font-size="50" transform="matrix(1 0 0 1 3306.74 3276)">Frío</text></g><g clip-path="url(#clip31)"><text fill="#525252" font-family="Calibri,Calibri_MSFontService,sans-serif" font-weight="400" font-size="50" transform="matrix(1 0 0 1 4692.87 3273)">Calor</text></g><rect x="3233" y="3337" width="1642" height="1007" fill="#DAE3F3" fill-opacity="0.501961"/><g clip-path="url(#clip32)"><path d="M3283.5 4293.5 4824.5 4293.5M3283.5 4162.64 4824.5 4162.64M3283.5 4031.63 4824.5 4031.63M3283.5 3899.63 4824.5 3899.63M3283.5 3768.62 4824.5 3768.62M3283.5 3637.62 4824.5 3637.62M3283.5 3506.5 4824.5 3506.5" stroke="#D9D9D9" stroke-width="3.4375" stroke-linejoin="round" stroke-miterlimit="10" fill="none"/></g><g clip-path="url(#clip33)"><path d="M3622.5 4293.5C3631.49 4293.36 3640.48 4293.32 3649.47 4293.09 3658.46 4292.86 3667.45 4292.64 3676.44 4292.12 3685.43 4291.59 3694.42 4291.06 3703.41 4289.95 3712.4 4288.84 3721.39 4287.65 3730.37 4285.45 3739.36 4283.24 3748.35 4280.81 3757.34 4276.72 3766.33 4272.63 3775.32 4267.99 3784.31 4260.92 3793.3 4253.85 3802.29 4245.68 3811.28 4234.3 3820.27 4222.92 3829.26 4209.65 3838.25 4192.62 3847.24 4175.6 3856.23 4155.72 3865.22 4132.15 3874.21 4108.57 3883.2 4081.24 3892.19 4051.15 3901.18 4021.07 3910.17 3986.74 3919.16 3951.63 3928.15 3916.53 3937.14 3877.51 3946.12 3840.52 3955.11 3803.53 3964.1 3764.07 3973.09 3729.7 3982.08 3695.33 3991.07 3661.01 4000.06 3634.3 4009.05 3607.6 4018.04 3584.12 4027.03 3569.49 4036.02 3554.86 4045.01 3546.5 4054 3546.5 4062.99 3546.5 4071.98 3554.86 4080.97 3569.49 4089.96 3584.12 4098.95 3607.6 4107.94 3634.3 4116.93 3661.01 4125.92 3695.33 4134.91 3729.7 4143.9 3764.07 4152.89 3803.53 4161.88 3840.52 4170.86 3877.51 4179.85 3916.53 4188.84 3951.63 4197.83 3986.74 4206.82 4021.07 4215.81 4051.15 4224.8 4081.24 4233.79 4108.57 4242.78 4132.15 4251.77 4155.72 4260.76 4175.6 4269.75 4192.62 4278.74 4209.65 4287.73 4222.92 4296.72 4234.3 4305.71 4245.68 4314.7 4253.85 4323.69 4260.92 4332.68 4267.99 4341.67 4272.63 4350.66 4276.72 4359.65 4280.81 4368.64 4283.24 4377.63 4285.45 4386.61 4287.65 4395.6 4288.84 4404.59 4289.95 4413.58 4291.06 4422.57 4291.59 4431.56 4292.12 4440.55 4292.64 4449.54 4292.86 4458.53 4293.09 4467.52 4293.32 4476.51 4293.36 4485.5 4293.5" stroke="#A5A5A5" stroke-width="6.875" stroke-linecap="round" stroke-linejoin="round" stroke-miterlimit="10" fill="none"/></g><g clip-path="url(#clip34)"><path d="M3545.5 4293.5C3557.06 4293.39 3568.62 4293.36 3580.19 4293.18 3591.75 4293 3603.31 4292.83 3614.88 4292.42 3626.44 4292.02 3638 4291.6 3649.56 4290.74 3661.12 4289.87 3672.69 4288.95 3684.25 4287.24 3695.81 4285.52 3707.37 4283.63 3718.94 4280.45 3730.5 4277.27 3742.06 4273.66 3753.62 4268.16 3765.19 4262.66 3776.75 4256.31 3788.31 4247.46 3799.88 4238.6 3811.44 4228.28 3823 4215.04 3834.56 4201.8 3846.12 4186.34 3857.69 4168 3869.25 4149.66 3880.81 4128.41 3892.38 4105.01 3903.94 4081.61 3915.5 4054.91 3927.06 4027.6 3938.62 4000.3 3950.19 3969.95 3961.75 3941.18 3973.31 3912.41 3984.87 3881.72 3996.44 3854.99 4008 3828.25 4019.56 3801.56 4031.12 3780.79 4042.69 3760.02 4054.25 3741.76 4065.81 3730.38 4077.38 3719 4088.94 3712.5 4100.5 3712.5 4112.06 3712.5 4123.62 3719 4135.19 3730.38 4146.75 3741.76 4158.31 3760.02 4169.88 3780.79 4181.44 3801.56 4193 3828.25 4204.56 3854.99 4216.12 3881.72 4227.69 3912.41 4239.25 3941.18 4250.81 3969.95 4262.38 4000.3 4273.94 4027.6 4285.5 4054.91 4297.06 4081.61 4308.62 4105.01 4320.19 4128.41 4331.75 4149.66 4343.31 4168 4354.88 4186.34 4366.44 4201.8 4378 4215.04 4389.56 4228.28 4401.12 4238.6 4412.69 4247.46 4424.25 4256.31 4435.81 4262.66 4447.38 4268.16 4458.94 4273.66 4470.5 4277.27 4482.06 4280.45 4493.62 4283.63 4505.19 4285.52 4516.75 4287.24 4528.31 4288.95 4539.88 4289.87 4551.44 4290.74 4563 4291.6 4574.56 4292.02 4586.12 4292.42 4597.69 4292.83 4609.25 4293 4620.81 4293.18 4632.38 4293.36 4643.94 4293.39 4655.5 4293.5" stroke="#4472C4" stroke-width="6.875" stroke-linecap="round" stroke-linejoin="round" stroke-miterlimit="10" fill="none"/></g><g clip-path="url(#clip35)"><path d="M4100.5 4293.5C4100.5 4099.83 4100.5 3906.17 4100.5 3712.5" stroke="#4472C4" stroke-width="6.875" stroke-linecap="round" stroke-linejoin="round" stroke-miterlimit="10" stroke-dasharray="20.625 27.5" stroke-opacity="0.501961" fill="none"/></g><g clip-path="url(#clip36)"><path d="M4054.5 4293.5C4054.5 4044.5 4054.5 3795.5 4054.5 3546.5" stroke="#A5A5A5" stroke-width="6.875" stroke-linecap="round" stroke-linejoin="round" stroke-miterlimit="10" stroke-dasharray="20.625 27.5" stroke-opacity="0.501961" fill="none"/></g><g clip-path="url(#clip37)"><text fill="#595959" font-family="Calibri,Calibri_MSFontService,sans-serif" font-weight="400" font-size="64" transform="matrix(1 0 0 1 3283.72 3432)">Aumento de la media y de la varianza</text></g><rect x="3233.5" y="3337.5" width="1642" height="1007" stroke="#D9D9D9" stroke-width="3.4375" stroke-linejoin="round" stroke-miterlimit="10" fill="none"/><g clip-path="url(#clip38)"><path d="M0.711889-0.897857 32.9444 24.6585 31.5206 26.4542-0.711889 0.897857ZM37.1838 11.9345 50.1897 39.7942 20.0984 33.4831Z" fill="#4472C4" transform="matrix(-1 0 0 1 4004.19 4064)"/></g><g clip-path="url(#clip39)"><path d="M4111.71 4063.1 4143.94 4088.66 4142.52 4090.45 4110.29 4064.9ZM4148.18 4075.93 4161.19 4103.79 4131.1 4097.48Z" fill="#4472C4"/></g><g clip-path="url(#clip40)"><path d="M4057 3482.85 4102.82 3482.85 4102.82 3485.15 4057 3485.15ZM4098.24 3470.25 4125.74 3484 4098.24 3497.75Z" fill="#4472C4"/></g><g clip-path="url(#clip41)"><path d="M3689.23 4003.47 3720.84 4212.72" stroke="#4472C4" stroke-width="4.58333" stroke-miterlimit="8" fill="none" fill-rule="evenodd"/></g><g clip-path="url(#clip42)"><text fill="#4472C4" font-family="Calibri,Calibri_MSFontService,sans-serif" font-weight="400" font-size="50" transform="matrix(1 0 0 1 3539.35 3920)">Menos impacto</text></g><g clip-path="url(#clip43)"><text fill="#4472C4" font-family="Calibri,Calibri_MSFontService,sans-serif" font-weight="400" font-size="50" transform="matrix(1 0 0 1 3539.35 3982)">en </text></g><g clip-path="url(#clip44)"><text fill="#4472C4" font-family="Calibri,Calibri_MSFontService,sans-serif" font-weight="400" font-size="50" transform="matrix(1 0 0 1 3602.32 3982)">frío extremo</text></g><g clip-path="url(#clip45)"><path d="M4443.32 3997.32 4432.41 4182.9" stroke="#C00000" stroke-width="4.58333" stroke-miterlimit="8" fill="none" fill-rule="evenodd"/></g><g clip-path="url(#clip46)"><text fill="#C00000" font-family="Calibri,Calibri_MSFontService,sans-serif" font-weight="400" font-size="50" transform="matrix(1 0 0 1 4363.11 3923)">Más calor </text></g><g clip-path="url(#clip47)"><text fill="#C00000" font-family="Calibri,Calibri_MSFontService,sans-serif" font-weight="400" font-size="50" transform="matrix(1 0 0 1 4363.11 3985)">extremo</text></g><g clip-path="url(#clip48)"><text fill="#525252" font-family="Calibri,Calibri_MSFontService,sans-serif" font-weight="400" font-size="50" transform="matrix(1 0 0 1 3315.74 4278)">Frío</text></g><g clip-path="url(#clip49)"><text fill="#525252" font-family="Calibri,Calibri_MSFontService,sans-serif" font-weight="400" font-size="50" transform="matrix(1 0 0 1 4691.49 4275)">Calor</text></g><rect x="3233.5" y="1054.5" width="1642" height="275" stroke="#DBDBDB" stroke-width="3.4375" stroke-linejoin="round" stroke-miterlimit="10" fill="#DAE3F3" fill-opacity="0.501961"/><g clip-path="url(#clip50)"><text font-family="Calibri,Calibri_MSFontService,sans-serif" font-weight="700" font-size="73" transform="matrix(1 0 0 1 3266.46 1141)">Spread betting</text></g><g clip-path="url(#clip51)"><text font-family="Calibri,Calibri_MSFontService,sans-serif" font-weight="400" font-size="55" transform="matrix(1 0 0 1 3266.46 1213)">Efectos de los cambios en la temperatura global</text></g><g clip-path="url(#clip52)"><text font-family="Calibri,Calibri_MSFontService,sans-serif" font-weight="400" font-size="55" transform="matrix(1 0 0 1 3266.46 1280)">sobre los eventos meteorológicos</text></g></g></svg>